<svg width="2090" height="1306" viewBox="0 0 2090 1306" fill="none" xmlns="http://www.w3.org/2000/svg">
<rect width="2090" height="1306" fill="#F7F7FF"/>
<path d="M82 117C82 90.4903 103.49 69 130 69H993C1019.51 69 1041 90.4903 1041 117V1190C1041 1216.51 1019.51 1238 993 1238H130C103.49 1238 82 1216.51 82 1190V117Z" fill="white"/>
<rect x="1108" y="204" width="935" height="363" rx="48" fill="white"/>
<path d="M1265.37 324.135L1254.31 335.194C1253.75 335.755 1253.75 336.665 1254.31 337.226C1254.58 337.497 1254.94 337.649 1255.32 337.648C1255.71 337.652 1256.07 337.499 1256.34 337.226L1267.4 326.167C1267.78 325.808 1267.94 325.269 1267.81 324.759C1267.68 324.25 1267.28 323.852 1266.78 323.722C1266.27 323.592 1265.73 323.75 1265.37 324.135Z" fill="#687591"/>
<circle cx="1255.88" cy="326.358" r="1.4375" fill="#687591"/>
<circle cx="1266" cy="335.003" r="1.4375" fill="#687591"/>
<path fill-rule="evenodd" clip-rule="evenodd" d="M1280.39 322.758C1281.03 324.397 1280.61 326.256 1279.34 327.47C1278.42 328.292 1277.9 329.466 1277.9 330.699C1277.9 331.933 1278.42 333.107 1279.34 333.929C1280.67 335.134 1281.12 337.029 1280.48 338.703C1279.84 340.376 1278.24 341.487 1276.45 341.5H1275.97C1274.78 341.509 1273.64 342.003 1272.83 342.867C1272.01 343.732 1271.58 344.892 1271.64 346.081C1271.7 347.275 1271.27 348.443 1270.44 349.307C1269.61 350.171 1268.46 350.655 1267.27 350.642C1266.05 350.643 1264.89 350.119 1264.08 349.205C1263.26 348.291 1262.09 347.769 1260.85 347.769C1259.62 347.769 1258.45 348.291 1257.62 349.205C1256.82 350.119 1255.66 350.643 1254.44 350.642C1253.24 350.655 1252.08 350.167 1251.26 349.294C1250.43 348.422 1250 347.244 1250.07 346.042C1250.12 344.857 1249.69 343.702 1248.88 342.841C1248.06 341.981 1246.93 341.49 1245.74 341.481H1245.26C1243.55 341.399 1242.04 340.318 1241.42 338.72C1240.79 337.122 1241.16 335.305 1242.37 334.082C1243.28 333.261 1243.8 332.09 1243.8 330.862C1243.8 329.634 1243.28 328.464 1242.37 327.642C1240.97 326.452 1240.46 324.509 1241.11 322.789C1241.76 321.069 1243.42 319.943 1245.26 319.976H1245.74C1246.94 319.973 1248.09 319.473 1248.91 318.594C1249.73 317.716 1250.15 316.537 1250.07 315.337C1250.03 314.155 1250.47 313.008 1251.3 312.161C1252.12 311.314 1253.26 310.841 1254.44 310.852C1255.67 310.849 1256.83 311.381 1257.62 312.309C1258.46 313.215 1259.63 313.73 1260.86 313.727C1262.09 313.724 1263.26 313.21 1264.08 312.309C1264.88 311.374 1266.04 310.835 1267.27 310.833C1268.47 310.821 1269.62 311.306 1270.45 312.175C1271.27 313.043 1271.7 314.216 1271.64 315.414C1271.58 316.601 1272.01 317.759 1272.83 318.621C1273.64 319.482 1274.78 319.972 1275.97 319.976H1276.45C1278.2 320.021 1279.76 321.119 1280.39 322.758ZM1277.23 337.436C1277.39 337.103 1277.29 336.704 1277 336.478V336.363C1275.4 334.883 1274.48 332.798 1274.48 330.613C1274.48 328.429 1275.4 326.344 1277 324.863C1277.29 324.637 1277.39 324.239 1277.23 323.905C1277.12 323.566 1276.8 323.34 1276.45 323.349H1275.97C1273.83 323.345 1271.79 322.465 1270.31 320.915C1268.85 319.365 1268.08 317.292 1268.17 315.165C1268.2 314.936 1268.13 314.705 1267.97 314.532C1267.79 314.339 1267.53 314.228 1267.27 314.226C1266.99 314.2 1266.72 314.316 1266.56 314.532C1265.08 316.156 1263 317.088 1260.81 317.101C1258.61 317.086 1256.53 316.155 1255.06 314.532C1254.91 314.344 1254.68 314.231 1254.44 314.226C1254.17 314.228 1253.92 314.339 1253.73 314.532C1253.58 314.705 1253.51 314.936 1253.54 315.165C1253.67 317.314 1252.9 319.42 1251.43 320.987C1249.95 322.554 1247.89 323.443 1245.74 323.445H1245.32C1244.94 323.416 1244.6 323.645 1244.48 324.001C1244.32 324.334 1244.41 324.733 1244.71 324.959C1246.33 326.434 1247.26 328.518 1247.27 330.709C1247.26 332.901 1246.33 334.987 1244.71 336.459C1244.41 336.685 1244.32 337.084 1244.48 337.417C1244.57 337.768 1244.9 338.006 1245.26 337.992H1245.74C1247.88 338 1249.92 338.881 1251.39 340.429C1252.86 341.978 1253.64 344.061 1253.54 346.196C1253.51 346.419 1253.58 346.645 1253.73 346.809C1253.94 347.015 1254.23 347.121 1254.52 347.096C1254.76 347.091 1254.98 346.986 1255.13 346.809C1256.61 345.16 1258.72 344.218 1260.93 344.218C1263.14 344.218 1265.25 345.16 1266.73 346.809C1266.86 346.975 1267.05 347.085 1267.27 347.116C1267.53 347.113 1267.79 347.002 1267.97 346.809C1268.13 346.645 1268.2 346.419 1268.17 346.196C1268.09 344.07 1268.86 342 1270.31 340.446C1271.79 338.903 1273.83 338.025 1275.97 338.011H1276.39C1276.77 338.045 1277.12 337.805 1277.23 337.436Z" fill="black"/>
<path d="M1386.98 328.984C1386.84 328.854 1386.69 328.75 1386.52 328.677C1386.17 328.525 1385.77 328.525 1385.42 328.677C1385.25 328.75 1385.09 328.854 1384.95 328.984L1381.11 332.817C1380.55 333.379 1380.55 334.288 1381.11 334.849C1381.38 335.123 1381.75 335.278 1382.13 335.278C1382.51 335.278 1382.88 335.123 1383.14 334.849L1384.49 333.507V338.778C1384.49 339.572 1385.13 340.216 1385.92 340.216C1386.72 340.216 1387.36 339.572 1387.36 338.778V333.469L1388.72 334.811C1388.99 335.084 1389.36 335.237 1389.74 335.232C1390.12 335.234 1390.49 335.082 1390.75 334.811C1391.31 334.25 1391.31 333.34 1390.75 332.779L1386.98 328.984Z" fill="black"/>
<path fill-rule="evenodd" clip-rule="evenodd" d="M1393.19 311.312H1378.81C1372.46 311.312 1367.31 316.461 1367.31 322.812V337.188C1367.31 343.539 1372.46 348.688 1378.81 348.688H1393.19C1396.24 348.688 1399.16 347.476 1401.32 345.319C1403.48 343.163 1404.69 340.237 1404.69 337.188V322.812C1404.69 316.461 1399.54 311.312 1393.19 311.312ZM1382.17 314.188H1389.83C1389.77 314.34 1389.74 314.502 1389.74 314.667V318.5C1389.74 319.823 1388.66 320.896 1387.34 320.896H1384.72C1383.39 320.896 1382.32 319.823 1382.32 318.5V314.667C1382.3 314.499 1382.25 314.336 1382.17 314.188ZM1393.13 345.812C1397.89 345.802 1401.74 341.947 1401.75 337.188L1401.81 322.812C1401.8 318.053 1397.95 314.198 1393.19 314.188H1392.46C1392.51 314.342 1392.54 314.504 1392.56 314.667V318.5C1392.56 321.411 1390.2 323.771 1387.28 323.771H1384.72C1381.8 323.771 1379.44 321.411 1379.44 318.5V314.667C1379.46 314.504 1379.49 314.342 1379.54 314.188H1378.81C1374.05 314.198 1370.2 318.053 1370.19 322.812V337.188C1370.2 341.947 1374.05 345.802 1378.81 345.812H1393.13Z" fill="black"/>
<path fill-rule="evenodd" clip-rule="evenodd" d="M1501.35 310.833H1522.66C1527.52 311 1531.32 315.063 1531.17 319.918V332.415C1531.24 334.76 1530.38 337.037 1528.77 338.742C1527.15 340.447 1524.93 341.44 1522.58 341.5H1504.34C1503.07 341.526 1501.88 342.066 1501.02 342.995L1496.48 347.844C1496.09 348.264 1495.55 348.507 1494.98 348.515C1494.4 348.5 1493.84 348.251 1493.44 347.822C1493.03 347.394 1492.82 346.822 1492.84 346.234V319.918C1492.69 315.063 1496.49 311 1501.35 310.833ZM1522.66 338.625C1525.93 338.46 1528.45 335.683 1528.3 332.415V319.918C1528.45 316.65 1525.93 313.874 1522.66 313.708H1501.35C1498.08 313.874 1495.56 316.65 1495.71 319.918V344.452L1498.84 341.04C1500.27 339.52 1502.25 338.648 1504.34 338.625H1522.66Z" fill="black"/>
<path d="M1504.82 323.771H1514.4C1515.19 323.771 1515.84 323.127 1515.84 322.333C1515.84 321.539 1515.19 320.896 1514.4 320.896H1504.82C1504.02 320.896 1503.38 321.539 1503.38 322.333C1503.38 323.127 1504.02 323.771 1504.82 323.771Z" fill="black"/>
<path d="M1519.19 328.563H1504.82C1504.02 328.563 1503.38 329.206 1503.38 330C1503.38 330.794 1504.02 331.438 1504.82 331.438H1519.19C1519.99 331.438 1520.63 330.794 1520.63 330C1520.63 329.206 1519.99 328.563 1519.19 328.563Z" fill="black"/>
<path d="M1638.96 315.146C1638.95 315.935 1638.31 316.573 1637.52 316.583C1636.73 316.573 1636.09 315.935 1636.08 315.146V312.271C1636.08 311.477 1636.73 310.833 1637.52 310.833C1638.31 310.833 1638.96 311.477 1638.96 312.271V315.146Z" fill="black"/>
<path fill-rule="evenodd" clip-rule="evenodd" d="M1654.77 330H1647.62C1646.83 330 1646.18 330.644 1646.18 331.438C1646.18 332.231 1646.83 332.875 1647.62 332.875H1653.28C1652.56 340.464 1646.55 346.47 1638.96 347.173V329.31C1641.5 328.61 1643.14 326.137 1642.78 323.522C1642.43 320.908 1640.2 318.957 1637.56 318.957C1634.92 318.957 1632.69 320.908 1632.34 323.522C1631.98 326.137 1633.62 328.61 1636.16 329.31V347.173C1628.57 346.47 1622.56 340.464 1621.84 332.875H1626.54C1627.33 332.875 1627.98 332.231 1627.98 331.438C1627.98 330.644 1627.33 330 1626.54 330H1620.27C1619.48 330 1618.83 330.644 1618.83 331.438C1618.83 341.758 1627.2 350.125 1637.52 350.125C1647.84 350.125 1656.21 341.758 1656.21 331.438C1656.21 330.644 1655.56 330 1654.77 330ZM1635.12 324.25C1635.12 322.927 1636.2 321.854 1637.52 321.854C1638.84 321.854 1639.92 322.927 1639.92 324.25C1639.92 325.573 1638.84 326.646 1637.52 326.646C1636.89 326.646 1636.28 326.393 1635.83 325.944C1635.38 325.495 1635.12 324.885 1635.12 324.25Z" fill="black"/>
<path d="M1748.56 341.366C1748.25 341.054 1747.85 340.847 1747.41 340.772C1747.27 340.753 1747.13 340.753 1746.99 340.772C1746.44 340.771 1745.91 340.976 1745.5 341.347C1744.63 342.215 1744.63 343.622 1745.5 344.49C1745.91 344.911 1746.48 345.146 1747.07 345.142C1747.66 345.148 1748.23 344.913 1748.64 344.49C1749.1 343.968 1749.3 343.261 1749.18 342.573C1749.09 342.119 1748.88 341.699 1748.56 341.366Z" fill="black"/>
<path d="M1746.57 335.731C1746.05 335.621 1745.51 335.807 1745.17 336.215C1744.83 336.624 1744.74 337.188 1744.94 337.68C1745.14 338.173 1745.6 338.515 1746.13 338.567C1748.84 338.967 1750.96 341.105 1751.34 343.819C1751.44 344.527 1752.05 345.052 1752.76 345.046H1752.97C1753.75 344.928 1754.29 344.199 1754.18 343.417C1753.64 339.428 1750.5 336.291 1746.51 335.75L1746.57 335.731Z" fill="black"/>
<path d="M1747.51 327.067C1746.98 326.944 1746.42 327.133 1746.07 327.554C1745.73 327.975 1745.65 328.556 1745.87 329.055C1746.09 329.553 1746.58 329.882 1747.12 329.904C1753.88 330.737 1759.19 336.067 1760 342.822C1760.1 343.541 1760.72 344.075 1761.44 344.068H1761.61C1761.99 344.021 1762.34 343.824 1762.57 343.522C1762.81 343.22 1762.91 342.837 1762.86 342.458C1761.85 334.443 1755.54 328.131 1747.53 327.125L1747.51 327.067Z" fill="black"/>
<path d="M1747.01 331.418C1746.48 331.295 1745.92 331.483 1745.58 331.905C1745.23 332.326 1745.15 332.907 1745.37 333.405C1745.6 333.904 1746.08 334.233 1746.63 334.255C1748.93 334.551 1751.06 335.602 1752.7 337.245C1754.34 338.876 1755.4 341.007 1755.69 343.302C1755.78 344.017 1756.39 344.553 1757.11 344.547H1757.28C1757.66 344.495 1758 344.294 1758.24 343.988C1758.47 343.682 1758.56 343.297 1758.51 342.918C1758.1 340.015 1756.75 337.325 1754.68 335.252C1752.61 333.17 1749.92 331.823 1747.01 331.418Z" fill="black"/>
<path d="M1774.53 314.667H1753.64C1749.07 314.677 1745.36 318.39 1745.36 322.966C1745.36 323.76 1746 324.403 1746.8 324.403C1747.59 324.403 1748.24 323.76 1748.24 322.966C1748.23 321.529 1748.8 320.149 1749.81 319.132C1750.83 318.114 1752.2 317.542 1753.64 317.542H1774.53C1777.49 317.594 1779.86 320.007 1779.86 322.966V335.846C1779.84 338.79 1777.48 341.18 1774.53 341.232H1767.63C1766.84 341.232 1766.2 341.875 1766.2 342.669C1766.2 343.463 1766.84 344.107 1767.63 344.107H1774.53C1779.11 344.107 1782.82 340.403 1782.83 335.827V322.966C1782.83 318.382 1779.12 314.667 1774.53 314.667Z" fill="black"/>
<path fill-rule="evenodd" clip-rule="evenodd" d="M1892.47 311.874L1905.6 321.093C1907.64 322.528 1908.86 324.866 1908.86 327.361V341.026C1908.85 343.197 1907.99 345.277 1906.45 346.808C1904.91 348.339 1902.83 349.197 1900.66 349.191H1879.04C1876.87 349.197 1874.78 348.339 1873.24 346.808C1871.71 345.277 1870.84 343.197 1870.83 341.026V327.361C1870.83 324.866 1872.05 322.528 1874.09 321.093L1887.22 311.874C1888.7 310.486 1891 310.486 1892.47 311.874ZM1904.42 344.775C1905.42 343.783 1905.98 342.435 1905.98 341.026V327.361C1905.96 325.832 1905.2 324.408 1903.95 323.527L1890.82 314.308L1890.61 314.155C1890.41 313.949 1890.14 313.833 1889.85 313.833C1889.56 313.833 1889.28 313.949 1889.08 314.155L1888.87 314.308L1875.74 323.527C1874.49 324.408 1873.74 325.832 1873.71 327.361V341.026C1873.71 342.435 1874.28 343.783 1875.28 344.775C1876.28 345.767 1877.63 346.322 1879.04 346.316H1900.66C1902.06 346.322 1903.42 345.767 1904.42 344.775Z" fill="black"/>
<path d="M1901.48 328.108L1890.86 335.526C1890.55 335.84 1890.12 336.009 1889.67 335.99C1889.23 335.972 1888.81 335.769 1888.52 335.43L1878.21 328.108C1877.8 327.75 1877.22 327.658 1876.71 327.871C1876.21 328.085 1875.87 328.566 1875.84 329.113C1875.81 329.66 1876.09 330.177 1876.56 330.446L1886.72 337.691C1887.56 338.467 1888.65 338.898 1889.79 338.899C1890.86 338.872 1891.88 338.44 1892.64 337.691L1903.13 330.37C1903.73 329.924 1903.89 329.089 1903.49 328.453C1903.03 327.808 1902.13 327.655 1901.48 328.108Z" fill="black"/>
<path fill-rule="evenodd" clip-rule="evenodd" d="M1278.13 436.608C1278.15 436.461 1278.15 436.313 1278.13 436.167C1278.13 432.462 1275.13 429.458 1271.42 429.458H1262.88C1261.82 429.458 1260.96 428.6 1260.96 427.542C1260.96 426.271 1260.45 425.052 1259.55 424.153C1258.66 423.255 1257.44 422.75 1256.17 422.75H1248.02C1244.05 422.75 1240.83 425.968 1240.83 429.938V451.538C1240.86 454.43 1243.21 456.761 1246.1 456.771H1270.37C1272.54 456.761 1274.49 455.423 1275.28 453.397L1279.28 440.939C1279.56 439.396 1279.14 437.81 1278.13 436.608ZM1243.71 429.938C1243.71 427.556 1245.64 425.625 1248.02 425.625H1256.17C1257.23 425.625 1258.08 426.483 1258.08 427.542C1258.09 430.184 1260.23 432.323 1262.88 432.333H1271.5C1273.09 432.333 1274.52 433.317 1275.08 434.806C1274.75 434.777 1274.42 434.777 1274.09 434.806H1250.7C1248.5 434.806 1246.52 436.183 1245.76 438.256L1243.71 443.584V429.938ZM1270.37 453.896C1271.34 453.895 1272.21 453.303 1272.57 452.401L1276.56 440.23C1276.63 439.584 1276.43 438.938 1276 438.447C1275.53 437.89 1274.82 437.579 1274.09 437.604H1250.7C1249.7 437.605 1248.79 438.231 1248.44 439.176L1243.71 451.73C1243.84 452.958 1244.87 453.893 1246.1 453.896H1270.37Z" fill="black"/>
<path fill-rule="evenodd" clip-rule="evenodd" d="M1394.63 425.625V440.958C1394.63 445.193 1391.19 448.625 1386.96 448.625H1371.63C1367.39 448.625 1363.96 445.193 1363.96 440.958V425.625C1363.96 421.391 1367.39 417.958 1371.63 417.958H1386.96C1391.19 417.958 1394.63 421.391 1394.63 425.625ZM1366.83 425.625V440.958C1366.83 442.229 1367.34 443.448 1368.24 444.347C1369.14 445.245 1370.35 445.75 1371.63 445.75H1386.96C1389.6 445.75 1391.75 443.605 1391.75 440.958V425.625C1391.75 422.979 1389.6 420.833 1386.96 420.833H1371.63C1368.98 420.833 1366.83 422.979 1366.83 425.625Z" fill="black"/>
<path d="M1400.38 429.938C1399.59 429.948 1398.95 430.585 1398.94 431.375V446.708C1398.93 450.144 1396.14 452.927 1392.71 452.938H1377.38C1376.58 452.938 1375.94 453.581 1375.94 454.375C1375.94 455.169 1376.58 455.813 1377.38 455.813H1392.71C1397.74 455.813 1401.81 451.736 1401.81 446.708V431.375C1401.8 430.585 1401.16 429.948 1400.38 429.938Z" fill="black"/>
<path fill-rule="evenodd" clip-rule="evenodd" d="M1529.7 427.139C1529.32 424.725 1527.31 422.9 1524.87 422.75H1499.36C1496.92 422.9 1494.91 424.725 1494.53 427.139L1492.86 449.603C1492.51 454.279 1495.68 458.285 1499.68 458.285H1524.2C1528.14 458.285 1531.27 454.452 1531 449.775L1529.7 427.139ZM1499.36 425.702H1524.87C1525.85 425.867 1526.62 426.637 1526.78 427.618L1527.59 441.342H1521.32C1518.81 441.429 1516.55 442.906 1515.46 445.175C1514.78 446.542 1513.38 447.407 1511.85 447.407C1510.33 447.407 1508.93 446.542 1508.25 445.175C1507.16 442.903 1504.9 441.425 1502.38 441.342H1496.37L1497.38 427.638C1497.55 426.634 1498.35 425.853 1499.36 425.702ZM1524.2 455.41C1525.15 455.383 1526.05 454.968 1526.69 454.26C1527.72 453.084 1528.22 451.541 1528.09 449.986L1527.76 444.236H1521.28C1519.83 444.334 1518.56 445.217 1517.95 446.536C1516.78 448.846 1514.41 450.302 1511.82 450.302C1509.24 450.302 1506.87 448.846 1505.7 446.536C1505.09 445.214 1503.8 444.332 1502.35 444.236H1496.16L1495.73 449.813C1495.59 451.414 1496.1 453.005 1497.15 454.222C1497.79 454.953 1498.71 455.384 1499.68 455.41H1524.2Z" fill="black"/>
<path fill-rule="evenodd" clip-rule="evenodd" d="M1651.85 433.734C1652.22 434.624 1653.08 435.206 1654.04 435.208C1655.35 435.219 1656.4 436.28 1656.4 437.585V441.687C1656.4 442.999 1655.34 444.063 1654.02 444.063C1653.06 444.066 1652.2 444.648 1651.83 445.538C1651.47 446.427 1651.67 447.449 1652.36 448.127C1653.27 449.065 1653.27 450.562 1652.36 451.5L1649.48 454.375C1648.54 455.29 1647.05 455.29 1646.11 454.375C1645.67 453.917 1645.07 453.66 1644.44 453.666C1643.81 453.661 1643.2 453.909 1642.75 454.355C1642.3 454.801 1642.04 455.409 1642.04 456.043C1642.04 457.355 1640.98 458.419 1639.67 458.419H1635.57C1634.25 458.419 1633.19 457.355 1633.19 456.043C1633.19 455.409 1632.94 454.801 1632.49 454.355C1632.04 453.909 1631.43 453.661 1630.79 453.666C1630.16 453.66 1629.56 453.917 1629.13 454.375C1628.19 455.29 1626.69 455.29 1625.75 454.375L1622.88 451.5C1621.96 450.562 1621.96 449.065 1622.88 448.127C1623.56 447.449 1623.77 446.427 1623.4 445.538C1623.04 444.648 1622.17 444.066 1621.21 444.063C1620.58 444.063 1619.98 443.813 1619.53 443.367C1619.08 442.922 1618.83 442.317 1618.83 441.687V437.585C1618.83 436.272 1619.9 435.208 1621.21 435.208C1622.17 435.206 1623.04 434.624 1623.4 433.734C1623.77 432.844 1623.56 431.822 1622.88 431.145C1621.96 430.207 1621.96 428.71 1622.88 427.772L1625.75 424.897C1626.69 423.981 1628.19 423.981 1629.13 424.897C1629.56 425.355 1630.16 425.612 1630.79 425.606C1631.43 425.611 1632.04 425.36 1632.49 424.91C1632.94 424.459 1633.19 423.847 1633.19 423.21C1633.19 421.897 1634.25 420.833 1635.57 420.833H1639.69C1641 420.833 1642.06 421.897 1642.06 423.21C1642.06 423.847 1642.31 424.459 1642.76 424.91C1643.21 425.36 1643.82 425.611 1644.46 425.606C1645.09 425.612 1645.69 425.355 1646.13 424.897C1647.06 423.981 1648.56 423.981 1649.5 424.897L1652.37 427.772C1653.29 428.71 1653.29 430.207 1652.37 431.145C1651.69 431.822 1651.49 432.844 1651.85 433.734ZM1649.12 444.428C1649.86 442.603 1651.58 441.357 1653.54 441.208L1653.49 438.064C1651.54 437.894 1649.86 436.651 1649.12 434.844C1648.39 433.033 1648.72 430.971 1649.98 429.478L1647.77 427.273C1646.84 428.056 1645.66 428.484 1644.44 428.481C1641.72 428.474 1639.45 426.412 1639.19 423.708H1636.04C1635.79 426.416 1633.51 428.483 1630.79 428.481C1629.57 428.484 1628.39 428.056 1627.46 427.273L1625.31 429.478C1626.55 430.982 1626.86 433.043 1626.12 434.844C1625.38 436.651 1623.69 437.894 1621.75 438.064V441.208C1623.69 441.378 1625.38 442.621 1626.12 444.428C1626.84 446.239 1626.51 448.301 1625.25 449.794L1627.46 451.998C1628.39 451.216 1629.57 450.788 1630.79 450.791C1633.51 450.797 1635.78 452.86 1636.04 455.563H1639.19C1639.43 452.847 1641.71 450.77 1644.44 450.791C1645.66 450.788 1646.84 451.216 1647.77 451.998L1649.92 449.794C1648.69 448.29 1648.38 446.228 1649.12 444.428Z" fill="black"/>
<path fill-rule="evenodd" clip-rule="evenodd" d="M1630.98 439.636C1630.98 435.973 1633.95 433.004 1637.62 433.004C1639.38 433.004 1641.06 433.703 1642.31 434.947C1643.55 436.19 1644.25 437.877 1644.25 439.636C1644.25 443.298 1641.28 446.268 1637.62 446.268C1633.95 446.268 1630.98 443.298 1630.98 439.636ZM1633.78 439.636C1633.78 441.753 1635.5 443.469 1637.62 443.469C1639.73 443.469 1641.45 441.753 1641.45 439.636C1641.45 437.519 1639.73 435.803 1637.62 435.803C1635.5 435.803 1633.78 437.519 1633.78 439.636Z" fill="black"/>
<path fill-rule="evenodd" clip-rule="evenodd" d="M1753.94 439.521C1753.94 434.228 1758.23 429.937 1763.52 429.937C1766.06 429.937 1768.5 430.947 1770.3 432.744C1772.09 434.542 1773.1 436.979 1773.1 439.521C1773.1 444.814 1768.81 449.104 1763.52 449.104C1758.23 449.104 1753.94 444.814 1753.94 439.521ZM1757.32 442.088C1758.36 444.595 1760.81 446.229 1763.52 446.229C1767.23 446.229 1770.23 443.226 1770.23 439.521C1770.23 436.808 1768.59 434.361 1766.09 433.323C1763.58 432.285 1760.7 432.859 1758.78 434.777C1756.86 436.696 1756.28 439.581 1757.32 442.088Z" fill="black"/>
<path d="M1763.52 427.542C1764.31 427.531 1764.95 426.894 1764.96 426.104V420.354C1764.96 419.56 1764.31 418.917 1763.52 418.917C1762.73 418.917 1762.08 419.56 1762.08 420.354V426.104C1762.09 426.894 1762.73 427.531 1763.52 427.542Z" fill="black"/>
<path d="M1763.52 451.5C1762.73 451.51 1762.09 452.148 1762.08 452.937V458.687C1762.08 459.481 1762.73 460.125 1763.52 460.125C1764.31 460.125 1764.96 459.481 1764.96 458.687V452.937C1764.95 452.148 1764.31 451.51 1763.52 451.5Z" fill="black"/>
<path d="M1753.02 431.049C1753.58 431.61 1754.49 431.61 1755.05 431.049C1755.61 430.488 1755.61 429.579 1755.05 429.017L1750.99 424.954C1750.63 424.57 1750.09 424.411 1749.58 424.541C1749.07 424.671 1748.67 425.069 1748.54 425.578C1748.41 426.088 1748.57 426.627 1748.95 426.986L1753.02 431.049Z" fill="black"/>
<path d="M1774.02 447.992C1773.46 447.465 1772.58 447.48 1772.03 448.028C1771.48 448.575 1771.46 449.458 1771.99 450.024L1776.06 454.087C1776.32 454.359 1776.69 454.511 1777.07 454.509C1777.45 454.513 1777.82 454.361 1778.09 454.087C1778.65 453.526 1778.65 452.617 1778.09 452.056L1774.02 447.992Z" fill="black"/>
<path d="M1751.54 439.521C1751.53 438.731 1750.89 438.094 1750.1 438.083H1744.35C1743.56 438.083 1742.92 438.727 1742.92 439.521C1742.92 440.315 1743.56 440.958 1744.35 440.958H1750.1C1750.89 440.948 1751.53 440.31 1751.54 439.521Z" fill="black"/>
<path d="M1782.69 438.083H1776.94C1776.14 438.083 1775.5 438.727 1775.5 439.521C1775.5 440.315 1776.14 440.958 1776.94 440.958H1782.69C1783.48 440.958 1784.13 440.315 1784.13 439.521C1784.13 438.727 1783.48 438.083 1782.69 438.083Z" fill="black"/>
<path d="M1753.02 447.992L1748.95 452.056C1748.39 452.617 1748.39 453.526 1748.95 454.087C1749.22 454.361 1749.59 454.513 1749.97 454.509C1750.35 454.511 1750.72 454.359 1750.99 454.087L1755.05 450.024C1755.58 449.458 1755.56 448.575 1755.01 448.028C1754.47 447.48 1753.58 447.465 1753.02 447.992Z" fill="black"/>
<path d="M1773.1 431.471C1773.49 431.473 1773.85 431.321 1774.12 431.049L1778.09 426.986C1778.47 426.627 1778.63 426.088 1778.5 425.578C1778.37 425.069 1777.97 424.671 1777.46 424.541C1776.95 424.411 1776.41 424.57 1776.06 424.954L1771.99 429.017C1771.43 429.579 1771.43 430.488 1771.99 431.049C1772.28 431.346 1772.69 431.5 1773.1 431.471Z" fill="black"/>
<path d="M1881.53 434.404C1883.11 434.404 1884.4 433.117 1884.4 431.529C1884.4 429.941 1883.11 428.654 1881.53 428.654C1879.94 428.654 1878.65 429.941 1878.65 431.529C1878.65 433.117 1879.94 434.404 1881.53 434.404Z" fill="black"/>
<path fill-rule="evenodd" clip-rule="evenodd" d="M1888.39 420.872H1888.24L1876.74 421.696C1874.06 421.936 1871.93 424.059 1871.69 426.737L1870.85 438.237C1870.75 439.295 1871.11 440.346 1871.85 441.112L1888.02 457.289C1888.71 457.947 1889.63 458.306 1890.57 458.285C1892.02 458.273 1893.41 457.671 1894.41 456.618L1906.62 444.428C1908.51 442.856 1908.81 440.058 1907.29 438.122L1891.01 421.83C1890.33 421.178 1889.41 420.82 1888.47 420.834L1888.39 420.872ZM1888.47 423.958C1888.58 423.923 1888.7 423.923 1888.81 423.958L1905.01 440.154C1905.16 440.872 1904.89 441.617 1904.32 442.07L1892.07 454.318C1891.67 454.756 1891.11 455.023 1890.52 455.065H1890.19L1874.05 438.793C1874 438.657 1874 438.507 1874.05 438.371L1874.9 426.871C1875.05 425.828 1875.85 425 1876.89 424.82L1888.39 423.996L1888.47 423.958Z" fill="black"/>
<mask id="mask0_3_251" style="mask-type:alpha" maskUnits="userSpaceOnUse" x="167" y="250" width="774" height="145">
<g clip-path="url(#clip0_3_251)">
<path d="M195.816 267.262H167V395.288H195.816V267.262Z" fill="black"/>
<path d="M281.4 358.175C279.671 361.627 277.366 364.216 274.772 366.23C271.891 367.956 268.433 368.819 264.398 368.819C261.805 368.819 259.5 368.244 257.194 367.381C254.889 366.518 252.872 365.079 251.143 363.353C249.414 361.627 247.973 359.325 247.109 356.736C246.244 354.147 245.668 351.27 245.668 347.817C245.668 344.653 246.244 341.488 247.109 338.899C247.973 336.31 249.414 334.008 251.143 332.282C252.872 330.556 254.889 329.117 257.194 328.254C259.5 327.391 261.805 326.816 264.398 326.816C268.433 326.816 271.602 327.679 274.196 329.405C276.789 331.131 278.806 333.72 280.535 337.173L281.688 339.474L307.334 328.829L306.182 326.24C303.012 318.76 297.537 312.431 290.621 307.827C283.417 303.224 274.772 300.635 264.687 300.635C257.771 300.635 251.431 301.786 245.668 304.087C239.905 306.389 235.006 309.841 230.684 313.869C226.361 318.185 223.191 323.075 220.886 328.829C218.581 334.583 217.428 340.913 217.428 347.817C217.428 354.722 218.581 361.052 220.886 366.806C223.191 372.56 226.649 377.45 230.684 381.766C235.006 386.081 239.905 389.246 245.668 391.835C251.431 394.137 257.771 395.288 264.687 395.288C275.06 395.288 283.705 392.986 290.909 388.095C297.825 383.492 303.3 377.163 307.046 369.683L308.487 366.806L282.553 355.585L281.4 358.175Z" fill="black"/>
<path d="M401.275 313.581C397.241 309.554 392.054 306.101 386.29 303.8C380.527 301.498 374.188 300.347 367.272 300.347C360.356 300.347 354.016 301.498 348.253 303.8C342.49 306.101 337.591 309.554 333.269 313.581C328.946 317.897 325.777 322.788 323.471 328.542C321.166 334.296 320.013 340.625 320.013 347.53C320.013 354.435 321.166 360.764 323.471 366.518C325.777 372.272 329.235 377.45 333.269 381.478C337.591 385.794 342.49 388.958 348.253 391.26C354.016 393.561 360.356 394.712 367.272 394.712C374.188 394.712 380.527 393.561 386.29 391.26C392.054 388.958 396.952 385.506 401.275 381.478C405.597 377.163 408.767 372.272 411.072 366.518C413.378 360.764 414.53 354.435 414.53 347.53C414.53 340.625 413.378 334.296 411.072 328.542C408.767 323.075 405.309 317.897 401.275 313.581ZM384.85 356.736C383.697 359.325 382.256 361.627 380.527 363.353C378.798 365.079 376.781 366.518 374.476 367.381C369.865 369.395 364.39 369.107 360.068 367.381C357.763 366.518 355.745 365.079 354.016 363.353C352.287 361.627 350.847 359.325 349.694 356.736C348.541 354.147 348.253 350.982 348.253 347.817C348.253 344.365 348.83 341.488 349.694 338.899C350.847 336.31 352.287 334.008 354.016 332.282C355.745 330.556 357.763 329.117 360.068 328.254C362.373 327.391 364.678 326.815 367.272 326.815C369.865 326.815 372.171 327.391 374.476 328.254C376.781 329.117 378.798 330.556 380.527 332.282C382.256 334.008 383.697 336.31 384.85 338.899C386.002 341.488 386.579 344.653 386.579 347.817C386.579 350.982 386.002 354.147 384.85 356.736Z" fill="black"/>
<path d="M508.759 313.869C505.877 310.417 502.131 307.54 497.809 305.813C493.486 304.087 488.299 302.936 482.824 302.936C476.773 302.936 471.01 304.375 466.111 306.964C463.229 308.69 460.636 310.417 458.331 312.718V305.526H431.532V395H459.771V351.27C459.771 348.105 460.06 345.228 460.924 342.351C461.789 339.762 462.653 337.46 464.094 335.446C465.535 333.433 467.264 331.994 469.281 330.843C471.298 329.692 473.315 329.117 475.908 329.117C480.231 329.117 483.401 330.268 485.418 332.569C487.435 334.871 488.588 338.899 488.588 344.077V395H516.827V341.488C516.827 336.022 516.251 330.843 514.81 325.952C513.658 321.349 511.64 317.321 508.759 313.869Z" fill="black"/>
<path d="M555.441 250C553.136 250 550.83 250.575 548.813 251.438C546.796 252.302 544.779 253.452 543.338 255.179C541.897 256.617 540.457 258.631 539.592 260.645C538.728 262.659 538.151 264.96 538.151 267.55C538.151 269.851 538.728 272.153 539.592 274.454C540.457 276.468 541.609 278.194 543.338 279.921C544.779 281.359 546.796 282.798 548.813 283.661C550.83 284.524 553.136 285.099 555.441 285.099C560.051 285.099 564.374 283.373 567.832 280.208C571.29 276.756 573.019 272.728 573.019 268.125C573.019 263.234 571.29 259.206 567.832 256.042C564.374 251.726 560.34 250 555.441 250Z" fill="black"/>
<path d="M569.561 305.813H541.321V395.288H569.561V305.813Z" fill="black"/>
<path d="M653.127 358.175C651.398 361.627 649.093 364.216 646.5 366.23C643.618 367.956 640.16 368.819 636.126 368.819C633.532 368.819 631.227 368.244 628.922 367.381C626.617 366.518 624.599 365.079 622.87 363.353C621.141 361.627 619.701 359.325 618.836 356.736C617.972 354.147 617.395 351.27 617.395 347.817C617.395 344.653 617.972 341.488 618.836 338.899C619.701 336.31 621.141 334.008 622.87 332.282C624.599 330.556 626.617 329.117 628.922 328.254C631.227 327.391 633.532 326.816 636.126 326.816C640.16 326.816 643.33 327.679 645.923 329.405C648.517 331.131 650.534 333.72 652.263 337.173L653.415 339.474L679.062 328.829L677.909 326.24C674.739 318.76 669.264 312.431 662.348 307.827C655.144 303.224 646.5 300.635 636.414 300.635C629.498 300.635 623.159 301.786 617.395 304.087C611.632 306.389 606.733 309.841 602.411 313.869C598.089 318.185 594.919 323.075 592.614 328.829C590.308 334.583 589.156 340.913 589.156 347.817C589.156 354.722 590.308 361.052 592.614 366.806C594.919 372.56 598.377 377.45 602.411 381.766C606.733 386.081 611.632 389.246 617.395 391.835C623.159 394.137 629.498 395.288 636.414 395.288C646.788 395.288 655.433 392.986 662.637 388.095C669.552 383.492 675.028 377.163 678.774 369.683L680.214 366.806L654.28 355.585L653.127 358.175Z" fill="black"/>
<path d="M772.714 313.581C768.68 309.266 763.493 306.101 757.73 303.8C751.966 301.498 745.627 300.347 738.711 300.347C731.795 300.347 725.456 301.498 719.692 303.8C713.929 306.101 709.03 309.554 704.708 313.581C700.386 317.897 697.216 322.788 694.911 328.542C692.605 334.296 691.453 340.625 691.453 347.53C691.453 354.435 692.605 360.764 694.911 366.518C697.216 372.272 700.674 377.45 704.708 381.478C709.03 385.794 713.929 388.958 719.692 391.26C725.456 393.561 731.795 394.712 738.711 394.712C745.627 394.712 751.966 393.561 757.73 391.26C763.493 388.958 768.392 385.506 772.714 381.478C777.036 377.163 780.206 372.272 782.511 366.518C784.817 360.764 785.969 354.435 785.969 347.53C785.969 340.625 784.817 334.296 782.511 328.542C780.206 323.075 777.036 317.897 772.714 313.581ZM756.289 356.736C755.136 359.325 753.695 361.627 751.966 363.353C750.237 365.079 748.22 366.518 745.915 367.381C741.304 369.395 735.829 369.107 731.507 367.381C729.202 366.518 727.185 365.079 725.456 363.353C723.727 361.627 722.286 359.325 721.133 356.736C719.981 354.147 719.692 350.982 719.692 347.817C719.692 344.365 720.269 341.488 721.133 338.899C722.286 336.31 723.727 334.008 725.456 332.282C727.185 330.556 729.202 329.117 731.507 328.254C733.812 327.391 736.118 326.815 738.711 326.815C741.304 326.815 743.61 327.391 745.915 328.254C748.22 329.117 750.237 330.556 751.966 332.282C753.695 334.008 755.136 336.31 756.289 338.899C757.441 341.488 757.73 344.653 757.73 347.817C758.018 350.982 757.441 354.147 756.289 356.736Z" fill="black"/>
<path d="M881.351 313.581C877.316 309.266 872.129 306.101 866.366 303.8C860.603 301.498 854.263 300.347 847.348 300.347C840.432 300.347 834.092 301.498 828.329 303.8C822.566 306.101 817.667 309.554 813.345 313.581C809.022 317.897 805.852 322.788 803.547 328.542C801.242 334.296 800.089 340.625 800.089 347.53C800.089 354.435 801.242 360.764 803.547 366.518C805.852 372.272 809.31 377.45 813.345 381.478C817.667 385.794 822.566 388.958 828.329 391.26C834.092 393.561 840.432 394.712 847.348 394.712C854.263 394.712 860.603 393.561 866.366 391.26C872.129 388.958 877.028 385.506 881.351 381.478C885.673 377.163 888.843 372.272 891.148 366.518C893.453 360.764 894.606 354.435 894.606 347.53C894.606 340.625 893.453 334.296 891.148 328.542C888.843 323.075 885.673 317.897 881.351 313.581ZM865.214 356.736C864.061 359.325 862.62 361.627 860.891 363.353C859.162 365.079 857.145 366.518 854.84 367.381C850.229 369.395 844.754 369.107 840.432 367.381C838.126 366.518 836.109 365.079 834.38 363.353C832.651 361.627 831.211 359.325 830.058 356.736C828.905 354.147 828.617 350.982 828.617 347.817C828.617 344.365 829.193 341.488 830.058 338.899C831.211 336.31 832.651 334.008 834.38 332.282C836.109 330.556 838.126 329.117 840.432 328.254C842.737 327.391 845.042 326.815 847.636 326.815C850.229 326.815 852.534 327.391 854.84 328.254C857.145 329.117 859.162 330.556 860.891 332.282C862.62 334.008 864.061 336.31 865.214 338.899C866.366 341.488 866.654 344.653 866.654 347.817C866.654 350.982 866.078 354.147 865.214 356.736Z" fill="black"/>
<path d="M941 267.262H912.76V395.288H941V267.262Z" fill="black"/>
</g>
</mask>
<g mask="url(#mask0_3_251)">
<rect x="-25" y="234.077" width="447" height="447" rx="82" transform="rotate(-45 -25 234.077)" fill="#108DE8"/>
<rect x="-59" y="331.077" width="722.005" height="447" rx="82" transform="rotate(-45 -59 331.077)" fill="#6210E8"/>
<rect x="255" y="622.832" width="941.628" height="447" rx="82" transform="rotate(-45 255 622.832)" fill="#10E8B4"/>
</g>
<rect x="788" y="427" width="156" height="65" rx="16" fill="#F4FFE4"/>
<path d="M806.32 470H800.4V453.36C800.4 451.845 800.795 450.64 801.584 449.744C802.395 448.848 803.707 448.4 805.52 448.4H816.4V453.84H806.32V470ZM815.664 463.472H805.04L804.24 458.032H815.664V463.472ZM824.548 470H818.788V461.136C818.788 459.707 819.065 458.416 819.62 457.264C820.174 456.112 821.017 455.195 822.148 454.512C823.278 453.829 824.708 453.488 826.436 453.488C826.99 453.488 827.534 453.541 828.068 453.648C828.622 453.733 829.102 453.861 829.508 454.032V459.568C829.124 459.355 828.708 459.195 828.26 459.088C827.812 458.981 827.385 458.928 826.98 458.928C826.233 458.928 825.636 459.141 825.188 459.568C824.761 459.973 824.548 460.56 824.548 461.328V470ZM839.92 470.448C838.213 470.448 836.677 470.096 835.312 469.392C833.968 468.667 832.901 467.664 832.112 466.384C831.344 465.083 830.96 463.557 830.96 461.808C830.96 460.272 831.312 458.864 832.016 457.584C832.741 456.304 833.744 455.28 835.024 454.512C836.304 453.744 837.787 453.36 839.472 453.36C841.221 453.36 842.704 453.744 843.92 454.512C845.136 455.28 846.053 456.293 846.672 457.552C847.312 458.789 847.632 460.123 847.632 461.552V462.992H835.6L836.4 461.968C836.4 462.693 836.539 463.333 836.816 463.888C837.115 464.421 837.52 464.837 838.032 465.136C838.544 465.413 839.152 465.552 839.856 465.552C840.624 465.552 841.296 465.36 841.872 464.976C842.469 464.592 842.907 464.091 843.184 463.472L847.6 465.68C846.917 467.173 845.915 468.347 844.592 469.2C843.269 470.032 841.712 470.448 839.92 470.448ZM836.752 460.016H841.904C841.819 459.717 841.659 459.44 841.424 459.184C841.211 458.907 840.933 458.693 840.592 458.544C840.251 458.373 839.856 458.288 839.408 458.288C838.96 458.288 838.555 458.373 838.192 458.544C837.829 458.693 837.531 458.896 837.296 459.152C837.061 459.408 836.88 459.696 836.752 460.016ZM858.826 470.448C857.12 470.448 855.584 470.096 854.218 469.392C852.874 468.667 851.808 467.664 851.018 466.384C850.25 465.083 849.866 463.557 849.866 461.808C849.866 460.272 850.218 458.864 850.922 457.584C851.648 456.304 852.65 455.28 853.93 454.512C855.21 453.744 856.693 453.36 858.378 453.36C860.128 453.36 861.61 453.744 862.826 454.512C864.042 455.28 864.96 456.293 865.578 457.552C866.218 458.789 866.538 460.123 866.538 461.552V462.992H854.506L855.306 461.968C855.306 462.693 855.445 463.333 855.722 463.888C856.021 464.421 856.426 464.837 856.938 465.136C857.45 465.413 858.058 465.552 858.762 465.552C859.53 465.552 860.202 465.36 860.778 464.976C861.376 464.592 861.813 464.091 862.09 463.472L866.506 465.68C865.824 467.173 864.821 468.347 863.498 469.2C862.176 470.032 860.618 470.448 858.826 470.448ZM855.658 460.016H860.81C860.725 459.717 860.565 459.44 860.33 459.184C860.117 458.907 859.84 458.693 859.498 458.544C859.157 458.373 858.762 458.288 858.314 458.288C857.866 458.288 857.461 458.373 857.098 458.544C856.736 458.693 856.437 458.896 856.202 459.152C855.968 459.408 855.786 459.696 855.658 460.016ZM878.213 470.48C876.506 470.48 874.991 470.117 873.669 469.392C872.346 468.667 871.301 467.664 870.533 466.384C869.786 465.104 869.413 463.653 869.413 462.032V446.64H875.173V458.32H872.485C872.485 457.488 872.773 456.709 873.349 455.984C873.925 455.237 874.671 454.64 875.589 454.192C876.527 453.744 877.509 453.52 878.533 453.52C880.239 453.52 881.722 453.872 882.981 454.576C884.261 455.28 885.253 456.272 885.957 457.552C886.661 458.832 887.013 460.325 887.013 462.032C887.013 463.568 886.629 464.976 885.861 466.256C885.093 467.536 884.037 468.56 882.693 469.328C881.37 470.096 879.877 470.48 878.213 470.48ZM878.213 465.072C878.831 465.072 879.365 464.933 879.813 464.656C880.261 464.379 880.613 464.005 880.869 463.536C881.125 463.067 881.253 462.555 881.253 462C881.253 461.445 881.125 460.933 880.869 460.464C880.613 459.995 880.261 459.621 879.813 459.344C879.365 459.067 878.831 458.928 878.213 458.928C877.615 458.928 877.082 459.067 876.613 459.344C876.165 459.621 875.813 459.995 875.557 460.464C875.301 460.933 875.173 461.445 875.173 462C875.173 462.555 875.301 463.067 875.557 463.536C875.813 464.005 876.165 464.379 876.613 464.656C877.082 464.933 877.615 465.072 878.213 465.072ZM890.209 454H895.969V470H890.209V454ZM893.089 452.304C892.47 452.304 891.894 452.155 891.361 451.856C890.827 451.536 890.401 451.109 890.081 450.576C889.782 450.043 889.633 449.467 889.633 448.848C889.633 448.208 889.782 447.632 890.081 447.12C890.401 446.587 890.827 446.171 891.361 445.872C891.894 445.552 892.47 445.392 893.089 445.392C893.729 445.392 894.305 445.552 894.817 445.872C895.35 446.171 895.766 446.587 896.065 447.12C896.385 447.632 896.545 448.208 896.545 448.848C896.545 449.467 896.385 450.043 896.065 450.576C895.766 451.109 895.35 451.536 894.817 451.856C894.305 452.155 893.729 452.304 893.089 452.304ZM908.139 470.448C906.432 470.448 904.896 470.096 903.531 469.392C902.187 468.667 901.12 467.664 900.331 466.384C899.563 465.083 899.179 463.557 899.179 461.808C899.179 460.272 899.531 458.864 900.235 457.584C900.96 456.304 901.963 455.28 903.243 454.512C904.523 453.744 906.005 453.36 907.691 453.36C909.44 453.36 910.923 453.744 912.139 454.512C913.355 455.28 914.272 456.293 914.891 457.552C915.531 458.789 915.851 460.123 915.851 461.552V462.992H903.819L904.619 461.968C904.619 462.693 904.757 463.333 905.035 463.888C905.333 464.421 905.739 464.837 906.251 465.136C906.763 465.413 907.371 465.552 908.075 465.552C908.843 465.552 909.515 465.36 910.091 464.976C910.688 464.592 911.125 464.091 911.403 463.472L915.819 465.68C915.136 467.173 914.133 468.347 912.811 469.2C911.488 470.032 909.931 470.448 908.139 470.448ZM904.971 460.016H910.123C910.037 459.717 909.877 459.44 909.643 459.184C909.429 458.907 909.152 458.693 908.811 458.544C908.469 458.373 908.075 458.288 907.627 458.288C907.179 458.288 906.773 458.373 906.411 458.544C906.048 458.693 905.749 458.896 905.515 459.152C905.28 459.408 905.099 459.696 904.971 460.016ZM925.413 470.512C923.6 470.512 922.096 470.203 920.901 469.584C919.706 468.965 918.768 468.048 918.085 466.832L922.245 464.496C922.544 465.008 922.917 465.392 923.365 465.648C923.813 465.904 924.4 466.032 925.125 466.032C925.53 466.032 925.85 465.989 926.085 465.904C926.341 465.819 926.533 465.712 926.661 465.584C926.789 465.435 926.853 465.275 926.853 465.104C926.853 464.784 926.65 464.549 926.245 464.4C925.84 464.251 925.317 464.123 924.677 464.016C924.037 463.909 923.354 463.781 922.629 463.632C921.904 463.461 921.221 463.205 920.581 462.864C919.941 462.523 919.418 462.043 919.013 461.424C918.608 460.784 918.405 459.952 918.405 458.928C918.405 457.925 918.672 457.019 919.205 456.208C919.76 455.376 920.549 454.715 921.573 454.224C922.618 453.733 923.866 453.488 925.317 453.488C926.597 453.488 927.685 453.669 928.581 454.032C929.477 454.395 930.213 454.853 930.789 455.408C931.386 455.963 931.834 456.539 932.133 457.136L927.973 459.504C927.802 459.013 927.472 458.64 926.981 458.384C926.512 458.107 926 457.968 925.445 457.968C925.168 457.968 924.933 458.011 924.741 458.096C924.549 458.16 924.4 458.256 924.293 458.384C924.208 458.491 924.165 458.629 924.165 458.8C924.165 459.12 924.368 459.365 924.773 459.536C925.178 459.707 925.701 459.845 926.341 459.952C926.981 460.059 927.664 460.197 928.389 460.368C929.114 460.539 929.797 460.795 930.437 461.136C931.077 461.477 931.6 461.957 932.005 462.576C932.41 463.173 932.613 463.973 932.613 464.976C932.613 466.085 932.282 467.056 931.621 467.888C930.96 468.72 930.085 469.371 928.997 469.84C927.909 470.288 926.714 470.512 925.413 470.512Z" fill="#54D305"/>
<path fill-rule="evenodd" clip-rule="evenodd" d="M185.798 580.008L197.298 586.39C199.126 587.408 200.256 589.339 200.25 591.431V603.813C200.256 605.905 199.126 607.835 197.298 608.853L185.798 615.236C184.059 616.205 181.941 616.205 180.202 615.236L168.702 608.853C166.874 607.835 165.744 605.905 165.75 603.813V591.431C165.744 589.339 166.874 587.408 168.702 586.39L180.202 580.008C181.941 579.038 184.059 579.038 185.798 580.008ZM195.823 606.343C196.731 605.823 197.293 604.859 197.298 603.813V591.431C197.293 590.385 196.731 589.421 195.823 588.901L184.323 582.518C183.453 582.034 182.394 582.034 181.524 582.518L170.024 588.901C169.116 589.421 168.554 590.385 168.548 591.431V603.813C168.554 604.859 169.116 605.823 170.024 606.343L181.524 612.725C182.394 613.21 183.453 613.21 184.323 612.725L195.823 606.343Z" fill="black"/>
<path d="M191.97 590.338L183.863 594.843C183.329 595.151 182.671 595.151 182.138 594.843L174.03 590.338C173.581 590.075 173.024 590.076 172.575 590.34C172.126 590.604 171.855 591.09 171.867 591.611C171.878 592.132 172.171 592.605 172.631 592.849L180.738 597.353C181.007 597.496 181.29 597.612 181.582 597.698V606.247C181.582 607.041 182.225 607.684 183.019 607.684C183.813 607.684 184.457 607.041 184.457 606.247V597.622C184.737 597.545 185.007 597.436 185.262 597.296L193.369 592.792C194.044 592.397 194.28 591.535 193.899 590.851C193.518 590.168 192.661 589.915 191.97 590.281V590.338Z" fill="black"/>
<path fill-rule="evenodd" clip-rule="evenodd" d="M324.87 581.943L328.052 590.779C328.744 592.49 328.573 594.429 327.592 595.993C326.757 597.177 325.549 598.048 324.161 598.465V611.498C324.131 612.963 323.52 614.355 322.463 615.368C321.406 616.382 319.99 616.934 318.526 616.903H300.011C298.529 616.96 297.086 616.42 296.005 615.404C294.924 614.388 294.296 612.981 294.261 611.498V598.657C292.912 598.348 291.696 597.616 290.792 596.568C289.492 594.944 289.169 592.746 289.948 590.818L293.111 581.963C293.857 580.074 295.7 578.85 297.73 578.896H320.251C322.278 578.842 324.123 580.059 324.87 581.943ZM311.59 613.779H311.607V613.837C311.601 613.818 311.596 613.799 311.59 613.779ZM311.59 613.779H306.719C306.738 613.633 306.738 613.485 306.719 613.338V609.294C306.753 608.686 307.034 608.118 307.498 607.723C307.962 607.329 308.567 607.141 309.173 607.205C310.377 607.117 311.428 608.014 311.53 609.218V613.319C311.53 613.475 311.55 613.629 311.59 613.779ZM318.43 613.779H314.386C314.404 613.633 314.404 613.485 314.386 613.338V609.294C314.282 606.472 311.919 604.263 309.096 604.349C306.266 604.252 303.891 606.464 303.787 609.294V613.396C303.769 613.542 303.769 613.69 303.787 613.837H299.915C298.503 613.902 297.304 612.814 297.232 611.403V598.618C299.785 598.233 301.836 596.312 302.388 593.788C303.063 596.85 305.872 598.959 309 598.753C312.072 598.881 314.793 596.79 315.459 593.788C315.999 596.47 318.22 598.49 320.941 598.772V611.498C320.824 612.805 319.741 613.813 318.43 613.837V613.779ZM322.263 595.398C323.28 595.372 324.221 594.858 324.793 594.018V594.076C325.191 593.406 325.241 592.585 324.928 591.872L321.765 583.151C321.485 582.581 320.885 582.239 320.251 582.288H297.73C297.12 582.233 296.535 582.54 296.235 583.074L293.073 591.872C292.662 592.685 292.735 593.659 293.264 594.402C293.742 594.989 294.429 595.367 295.181 595.456C295.423 595.484 295.667 595.484 295.909 595.456C297.384 595.536 298.716 594.579 299.11 593.156C299.403 591.536 300.799 590.348 302.445 590.319C304.109 590.318 305.525 591.531 305.78 593.175C306.17 594.607 307.52 595.563 309 595.456C310.493 595.555 311.842 594.57 312.201 593.118C312.478 591.486 313.881 590.285 315.536 590.262C317.194 590.259 318.607 591.462 318.871 593.098C319.261 594.541 320.619 595.505 322.11 595.398H322.263Z" fill="black"/>
<path fill-rule="evenodd" clip-rule="evenodd" d="M451.752 587.77L454.167 603.755C455.144 610.751 450.333 617.114 443.817 617.172H426.068C419.667 617.172 414.798 610.751 415.833 603.755L418.248 587.77C418.822 582.485 423.172 578.412 428.483 578.187H441.517C446.828 578.412 451.178 582.485 451.752 587.77ZM443.874 614.239C445.932 614.21 447.873 613.278 449.183 611.69C450.94 609.609 451.703 606.866 451.272 604.177L448.915 588.192C448.578 584.29 445.427 581.228 441.517 581.004H428.483C424.573 581.228 421.422 584.29 421.085 588.192L418.727 604.177C418.297 606.866 419.06 609.609 420.817 611.69C422.127 613.278 424.068 614.21 426.126 614.239H443.874Z" fill="black"/>
<path d="M441.037 588.153C440.244 588.153 439.6 588.797 439.6 589.591C439.6 592.131 437.54 594.191 435 594.191C432.459 594.191 430.4 592.131 430.4 589.591C430.4 588.797 429.756 588.153 428.962 588.153C428.169 588.153 427.525 588.797 427.525 589.591C427.525 592.261 428.95 594.729 431.262 596.064C433.575 597.4 436.425 597.4 438.737 596.064C441.05 594.729 442.475 592.261 442.475 589.591C442.465 588.801 441.827 588.164 441.037 588.153Z" fill="black"/>
<path fill-rule="evenodd" clip-rule="evenodd" d="M553 579.576H569C573.763 579.576 577.625 583.438 577.625 588.201V607.608C577.625 609.895 576.716 612.089 575.099 613.706C573.481 615.324 571.287 616.233 569 616.233H553C548.237 616.233 544.375 612.371 544.375 607.608V588.201C544.375 583.438 548.237 579.576 553 579.576ZM574.304 588.201C574.292 585.277 571.924 582.909 569 582.897H553C550.076 582.909 547.708 585.277 547.696 588.201V607.608C547.708 610.532 550.076 612.9 553 612.912H569C571.924 612.9 574.292 610.532 574.304 607.608V588.201Z" fill="black"/>
<path d="M567.922 595.705H554.078C553.185 595.705 552.461 594.981 552.461 594.088C552.461 593.195 553.185 592.471 554.078 592.471H567.922C568.815 592.471 569.539 593.195 569.539 594.088C569.539 594.981 568.815 595.705 567.922 595.705Z" fill="black"/>
<path d="M561 607.025C560.107 607.025 559.383 607.749 559.383 608.643C559.383 609.536 560.107 610.26 561 610.26C561.893 610.26 562.617 609.536 562.617 608.643C562.606 607.754 561.888 607.037 561 607.025Z" fill="black"/>
<path fill-rule="evenodd" clip-rule="evenodd" d="M682.208 577.343H691.792C698.143 577.343 703.292 582.492 703.292 588.843V606.093C703.292 612.445 698.143 617.593 691.792 617.593H682.208C675.857 617.593 670.708 612.445 670.708 606.093V588.843C670.708 582.492 675.857 577.343 682.208 577.343ZM691.792 614.067C696.195 614.067 699.765 610.497 699.765 606.093V588.843C699.765 584.44 696.195 580.87 691.792 580.87H682.208C677.805 580.87 674.235 584.44 674.235 588.843V606.093C674.235 610.497 677.805 614.067 682.208 614.067H691.792Z" fill="black"/>
<path d="M692.999 585.623C689.709 587.817 685.422 587.817 682.132 585.623C681.667 585.266 681.042 585.196 680.51 585.444C679.978 585.691 679.628 586.214 679.603 586.8C679.577 587.386 679.879 587.937 680.388 588.23C682.507 589.654 685.003 590.415 687.556 590.415C690.089 590.4 692.562 589.64 694.667 588.23C695.175 587.937 695.477 587.386 695.452 586.8C695.426 586.214 695.076 585.691 694.544 585.444C694.012 585.196 693.387 585.266 692.923 585.623H692.999Z" fill="black"/>
<path fill-rule="evenodd" clip-rule="evenodd" d="M803.57 580.774C804.994 580.775 806.3 581.564 806.962 582.825L810.738 590.108C811.353 591.295 811.305 592.716 810.613 593.859C809.92 595.002 808.682 595.701 807.346 595.705H799.794C798.444 595.728 797.182 595.039 796.47 593.892C795.759 592.744 795.704 591.307 796.325 590.108L800.158 582.825C800.824 581.558 802.139 580.768 803.57 580.774ZM807.346 592.868C807.682 592.87 807.995 592.696 808.17 592.408V592.37C808.344 592.109 808.373 591.776 808.247 591.488L804.413 584.205C804.269 583.899 803.966 583.699 803.627 583.688C803.268 583.675 802.933 583.868 802.765 584.186L798.932 591.469C798.777 591.768 798.79 592.126 798.967 592.413C799.143 592.7 799.457 592.872 799.794 592.868H807.346Z" fill="black"/>
<path fill-rule="evenodd" clip-rule="evenodd" d="M830.058 588.038C830.058 592.273 826.626 595.705 822.392 595.705C818.157 595.705 814.725 592.273 814.725 588.038C814.725 583.804 818.157 580.372 822.392 580.372C826.626 580.372 830.058 583.804 830.058 588.038ZM827.183 588.038C827.183 585.392 825.038 583.247 822.392 583.247C821.121 583.247 819.902 583.752 819.003 584.65C818.105 585.549 817.6 586.768 817.6 588.038C817.6 590.685 819.745 592.83 822.392 592.83C825.038 592.83 827.183 590.685 827.183 588.038Z" fill="black"/>
<path fill-rule="evenodd" clip-rule="evenodd" d="M818.558 599.538H826.225C828.342 599.538 830.058 601.255 830.058 603.372V611.038C830.058 613.156 828.342 614.872 826.225 614.872H818.558C816.441 614.872 814.725 613.156 814.725 611.038V603.372C814.725 601.255 816.441 599.538 818.558 599.538ZM826.225 611.997C826.754 611.997 827.183 611.568 827.183 611.038V603.372C827.183 602.842 826.754 602.413 826.225 602.413H818.558C818.029 602.413 817.6 602.842 817.6 603.372V611.038C817.6 611.568 818.029 611.997 818.558 611.997H826.225Z" fill="black"/>
<path d="M810.336 599.845C810.069 599.571 809.703 599.417 809.32 599.417C808.937 599.417 808.571 599.571 808.304 599.845L803.57 604.579L798.836 599.845C798.269 599.317 797.387 599.333 796.839 599.88C796.292 600.428 796.276 601.31 796.804 601.877L801.5 606.611L796.804 611.345C796.53 611.612 796.376 611.978 796.376 612.361C796.376 612.743 796.53 613.11 796.804 613.377C797.076 613.643 797.44 613.794 797.82 613.798C798.199 613.79 798.562 613.64 798.836 613.377L803.57 608.643L808.304 613.377C808.576 613.643 808.94 613.794 809.32 613.798C809.699 613.79 810.062 613.64 810.336 613.377C810.896 612.816 810.896 611.906 810.336 611.345L805.602 606.611L810.336 601.877C810.896 601.316 810.896 600.406 810.336 599.845Z" fill="black"/>
<path fill-rule="evenodd" clip-rule="evenodd" d="M957.228 579.567C956.152 578.5 954.698 577.901 953.183 577.899C951.871 577.904 950.599 578.357 949.58 579.183L931.621 593.788L931.333 594.076C928.83 596.558 928.275 600.398 929.973 603.487C929.276 603.274 928.554 603.158 927.826 603.142C923.592 603.142 920.159 606.574 920.159 610.808V615.6C920.159 617.188 921.446 618.475 923.034 618.475H927.826C930.487 618.46 932.951 617.067 934.334 614.793C935.717 612.519 935.822 609.69 934.611 607.32C935.377 607.579 936.179 607.715 936.988 607.723C939.11 607.737 941.149 606.894 942.642 605.384L942.833 605.173L957.534 587.214C959.39 584.957 959.258 581.668 957.228 579.567ZM927.903 615.6H923.111V610.808C923.111 608.162 925.256 606.017 927.903 606.017C930.549 606.017 932.694 608.162 932.694 610.808C932.694 613.455 930.549 615.6 927.903 615.6ZM940.687 603.372L955.388 585.393C956.289 584.265 956.198 582.639 955.176 581.618C954.155 580.596 952.53 580.506 951.401 581.407L933.442 596.108C931.436 598.108 931.431 601.356 933.432 603.362C935.433 605.368 938.681 605.372 940.687 603.372Z" fill="black"/>
<path d="M941.3 593.463L935.55 599.213C934.989 599.774 934.989 600.683 935.55 601.244C936.111 601.805 937.02 601.805 937.582 601.244L943.332 595.494C943.716 595.136 943.875 594.596 943.745 594.087C943.614 593.578 943.217 593.18 942.707 593.05C942.198 592.92 941.658 593.078 941.3 593.463Z" fill="black"/>
<path d="M179.05 707.508H171.297C167.78 707.508 164.93 710.359 164.93 713.876V733.721C164.93 737.238 167.78 740.088 171.297 740.088H182.706C183.538 740.088 184.213 740.763 184.213 741.595C184.213 742.427 183.538 743.101 182.706 743.101H171.297C166.121 743.09 161.928 738.897 161.917 733.721V713.876C161.911 711.382 162.897 708.989 164.656 707.223C166.415 705.456 168.804 704.46 171.297 704.455H179.05C181.968 704.455 184.333 706.82 184.333 709.738C184.344 710.987 185.354 711.997 186.603 712.008H194.356C199.532 712.019 203.726 716.212 203.737 721.388C203.748 722.238 203.08 722.942 202.23 722.975C201.836 722.991 201.453 722.846 201.168 722.573C200.884 722.3 200.723 721.923 200.724 721.529C200.75 719.819 200.093 718.169 198.897 716.947C197.701 715.725 196.066 715.031 194.356 715.021H186.603C183.685 715.021 181.32 712.655 181.32 709.738C181.288 708.505 180.284 707.519 179.05 707.508Z" fill="black"/>
<path d="M187.346 727.675C187.346 726.843 188.021 726.168 188.853 726.168H198.494C199.326 726.168 200.001 726.843 200.001 727.675C200.001 728.507 199.326 729.181 198.494 729.181H188.853C188.021 729.181 187.346 728.507 187.346 727.675Z" fill="black"/>
<path d="M188.853 740.068H192.87C193.702 740.068 194.376 740.743 194.376 741.575C194.376 742.407 193.702 743.081 192.87 743.081H188.853C188.021 743.081 187.346 742.407 187.346 741.575C187.346 740.743 188.021 740.068 188.853 740.068Z" fill="black"/>
<path d="M188.853 733.118C188.021 733.118 187.346 733.793 187.346 734.625C187.346 735.457 188.021 736.131 188.853 736.131H202.27C203.102 736.131 203.777 735.457 203.777 734.625C203.777 733.793 203.102 733.118 202.27 733.118H188.853Z" fill="black"/>
<path fill-rule="evenodd" clip-rule="evenodd" d="M302.053 706.38H315.946C317.579 706.297 319.178 706.844 320.392 707.9C321.606 708.957 322.334 710.437 322.417 712.012V738.948C322.419 739.488 322.185 740.003 321.774 740.368C321.362 740.732 320.81 740.913 320.253 740.864C319.765 740.864 319.291 740.709 318.904 740.423L310.31 734.12C309.498 733.533 308.382 733.533 307.571 734.12L299.057 740.423C298.68 740.701 298.221 740.856 297.747 740.864C297.19 740.913 296.638 740.732 296.226 740.368C295.814 740.003 295.581 739.488 295.583 738.948V712.012C295.665 710.437 296.394 708.957 297.608 707.9C298.821 706.844 300.421 706.297 302.053 706.38ZM312.156 731.841L319.4 737.205L319.36 712.012C319.172 710.342 317.642 709.119 315.907 709.254H302.014C300.279 709.119 298.748 710.342 298.56 712.012V737.205L305.805 731.841C307.68 730.461 310.28 730.461 312.156 731.841Z" fill="black"/>
<path fill-rule="evenodd" clip-rule="evenodd" d="M437.472 705.496L450.602 714.715C452.643 716.149 453.858 718.487 453.86 720.982V734.648C453.855 736.819 452.988 738.898 451.449 740.43C449.911 741.961 447.827 742.818 445.657 742.813H424.037C421.866 742.818 419.782 741.961 418.244 740.43C416.705 738.898 415.838 736.819 415.833 734.648V720.982C415.835 718.487 417.05 716.149 419.092 714.715L432.221 705.496C433.696 704.108 435.997 704.108 437.472 705.496ZM449.416 738.397C450.416 737.405 450.98 736.056 450.985 734.648V720.982C450.958 719.454 450.203 718.029 448.953 717.149L435.824 707.93L435.613 707.777C435.411 707.57 435.135 707.454 434.847 707.454C434.558 707.454 434.282 707.57 434.08 707.777L433.869 707.93L420.74 717.149C419.49 718.029 418.735 719.454 418.708 720.982V734.648C418.713 736.056 419.278 737.405 420.277 738.397C421.276 739.389 422.629 739.943 424.037 739.938H445.657C447.065 739.943 448.417 739.389 449.416 738.397Z" fill="black"/>
<path d="M446.481 721.73L435.862 729.147C435.548 729.462 435.116 729.63 434.672 729.612C434.228 729.594 433.812 729.391 433.524 729.052L423.212 721.73C422.798 721.372 422.216 721.28 421.712 721.493C421.208 721.707 420.868 722.188 420.837 722.735C420.806 723.281 421.087 723.798 421.564 724.068L431.722 731.313C432.555 732.089 433.651 732.52 434.789 732.521C435.859 732.494 436.88 732.062 437.645 731.313L448.129 723.992C448.732 723.545 448.89 722.711 448.493 722.075C448.029 721.43 447.133 721.277 446.481 721.73Z" fill="black"/>
<path fill-rule="evenodd" clip-rule="evenodd" d="M553.333 704.455H567.862C574.213 704.455 579.362 709.604 579.362 715.955V730.483C579.362 736.835 574.213 741.983 567.862 741.983H553.333C546.982 741.983 541.833 736.835 541.833 730.483V715.955C541.833 709.604 546.982 704.455 553.333 704.455ZM567.862 739.108C572.621 739.098 576.476 735.243 576.487 730.483V715.955C576.476 711.196 572.621 707.341 567.862 707.33H553.333C548.574 707.341 544.719 711.196 544.708 715.955V730.483C544.719 735.243 548.574 739.098 553.333 739.108H567.862Z" fill="black"/>
<path d="M560.598 716.032C559.808 716.042 559.17 716.68 559.16 717.469C559.16 718.266 559.801 718.915 560.598 718.926C560.984 718.931 561.355 718.779 561.627 718.504C561.898 718.229 562.046 717.855 562.035 717.469C562.035 716.675 561.391 716.032 560.598 716.032Z" fill="black"/>
<path d="M560.598 721.552C559.804 721.552 559.16 722.195 559.16 722.989V728.969C559.16 729.763 559.804 730.407 560.598 730.407C561.391 730.407 562.035 729.763 562.035 728.969V723.028C562.051 722.638 561.906 722.259 561.634 721.98C561.362 721.701 560.987 721.546 560.598 721.552Z" fill="black"/>
<path fill-rule="evenodd" clip-rule="evenodd" d="M691.907 728.145H692.022C695.788 726.483 698.791 723.466 700.436 719.693V728.049C700.452 733.406 697.28 738.258 692.367 740.393H692.233C690.609 741.08 688.86 741.426 687.096 741.408C685.391 741.413 683.703 741.074 682.132 740.412L681.634 740.201C676.732 738.15 673.553 733.344 673.584 728.03V727.685C673.62 724.964 674.729 722.367 676.67 720.459L677.015 720.133C680.064 717.146 682.58 713.659 684.451 709.822L687.077 704.455C687.077 704.455 689.799 708.288 692.329 712.122C695.414 716.7 694.388 722.891 689.99 726.228H689.76C689.304 726.803 689.353 727.629 689.875 728.145C690.094 728.329 690.377 728.419 690.661 728.394C691.087 728.376 691.507 728.292 691.907 728.145ZM691.064 737.728H691.198V737.709C695.03 736.03 697.516 732.253 697.542 728.068C696.249 729.206 694.771 730.114 693.172 730.752L692.923 730.848C692.201 731.129 691.435 731.278 690.661 731.288C689.612 731.325 688.594 730.931 687.844 730.196C686.278 728.648 686.129 726.17 687.499 724.446C687.666 724.237 687.859 724.05 688.074 723.89H688.208C691.44 721.479 692.2 716.951 689.933 713.617C689.109 712.39 688.285 711.163 687.518 710.071L687.039 711.068C685.01 715.156 682.301 718.87 679.027 722.05L678.682 722.376C677.29 723.75 676.492 725.615 676.459 727.57V727.934C676.407 732.111 678.894 735.902 682.745 737.518L683.244 737.728C685.742 738.789 688.565 738.789 691.064 737.728Z" fill="black"/>
<path fill-rule="evenodd" clip-rule="evenodd" d="M828.889 714.039L818.233 706.162C815.115 703.886 810.885 703.886 807.768 706.162L797.13 714.039C795.07 715.523 793.845 717.903 793.833 720.441V734.682C793.948 739.269 797.756 742.897 802.343 742.789H823.657C828.244 742.897 832.052 739.269 832.167 734.682V720.422C832.15 717.894 830.934 715.525 828.889 714.039ZM829.292 734.682C829.177 737.681 826.656 740.022 823.657 739.914H802.343C799.348 740.012 796.833 737.677 796.708 734.682V720.441C796.719 718.812 797.51 717.286 798.836 716.339L809.473 708.481C811.574 706.947 814.426 706.947 816.527 708.481L827.164 716.359C828.489 717.289 829.282 718.803 829.292 720.422V734.682ZM804.375 730.81H821.625C822.419 730.81 823.063 731.454 823.063 732.248C823.063 733.042 822.419 733.685 821.625 733.685H804.375C803.581 733.685 802.938 733.042 802.938 732.248C802.938 731.454 803.581 730.81 804.375 730.81Z" fill="black"/>
<path fill-rule="evenodd" clip-rule="evenodd" d="M935.684 726.708L920.504 719.041C919.982 718.684 919.671 718.092 919.671 717.46C919.671 716.827 919.982 716.236 920.504 715.878L935.684 708.212C936.477 707.82 937.349 707.617 938.233 707.618C939.039 707.622 939.834 707.792 940.572 708.116L957.419 715.783C958.029 716.12 958.408 716.762 958.408 717.46C958.408 718.157 958.029 718.799 957.419 719.137L940.572 726.803C939.834 727.128 939.039 727.297 938.233 727.302C937.349 727.302 936.477 727.099 935.684 726.708ZM938.329 710.416C937.897 710.413 937.47 710.511 937.083 710.703L923.667 717.393L937.083 724.063C937.47 724.255 937.897 724.353 938.329 724.35C938.726 724.354 939.119 724.269 939.479 724.101L954.257 717.393L939.479 710.665C939.119 710.497 938.726 710.412 938.329 710.416Z" fill="black"/>
<path d="M956.806 723.718L939.843 730.79C938.806 731.281 937.603 731.281 936.566 730.79L921.539 723.737C921.07 723.521 920.522 723.572 920.1 723.87C919.679 724.169 919.449 724.669 919.496 725.183C919.544 725.697 919.863 726.147 920.332 726.363L935.32 733.301C936.25 733.761 937.272 734.003 938.31 734.01C939.237 734.012 940.154 733.809 940.993 733.416L957.898 726.382C958.262 726.238 958.551 725.952 958.699 725.591C958.847 725.229 958.842 724.823 958.684 724.465C958.361 723.751 957.531 723.421 956.806 723.718Z" fill="black"/>
<path d="M956.806 729.621L939.843 736.693C938.806 737.184 937.603 737.184 936.566 736.693L921.539 729.659C921.07 729.419 920.507 729.455 920.072 729.753C919.637 730.05 919.4 730.562 919.454 731.086C919.508 731.611 919.845 732.063 920.332 732.266L935.32 739.204C936.241 739.671 937.259 739.914 938.291 739.913C939.199 739.909 940.095 739.706 940.917 739.319L957.822 732.285C958.185 732.141 958.474 731.856 958.622 731.494C958.771 731.132 958.765 730.726 958.607 730.368C958.281 729.701 957.509 729.381 956.806 729.621Z" fill="black"/>
<path fill-rule="evenodd" clip-rule="evenodd" d="M163.833 849.776C163.833 839.105 172.483 830.456 183.153 830.456C184.573 830.448 185.988 830.609 187.37 830.935C181.901 832.5 178.322 837.738 178.85 843.401C179.378 849.065 183.864 853.551 189.527 854.078C195.191 854.606 200.428 851.027 201.994 845.559C202.32 846.941 202.48 848.356 202.473 849.776C202.473 860.446 193.823 869.096 183.153 869.096C172.483 869.096 163.833 860.446 163.833 849.776ZM180.207 852.72C175.195 847.713 174.468 839.843 178.477 834.001C170.931 836.242 166.031 843.516 166.79 851.351C167.549 859.186 173.753 865.384 181.589 866.136C189.424 866.887 196.693 861.981 198.927 854.433C193.09 858.447 185.219 857.727 180.207 852.72Z" fill="black"/>
<path fill-rule="evenodd" clip-rule="evenodd" d="M293.785 841.322C296.519 834.758 302.923 830.475 310.034 830.456C317.697 830.415 324.511 835.324 326.9 842.605C329.288 849.887 326.706 857.878 320.508 862.385C314.311 866.892 305.913 866.885 299.722 862.368L294.202 867.888C293.641 868.449 292.732 868.449 292.17 867.888C291.61 867.327 291.61 866.418 292.17 865.856L297.518 860.509C292.523 855.449 291.051 847.885 293.785 841.322ZM296.348 853.779C298.643 859.31 304.046 862.913 310.034 862.905V862.828C318.161 862.818 324.759 856.254 324.811 848.127C324.819 842.139 321.217 836.737 315.686 834.441C310.155 832.146 303.786 833.411 299.552 837.645C295.317 841.88 294.053 848.249 296.348 853.779Z" fill="black"/>
<path fill-rule="evenodd" clip-rule="evenodd" d="M421.31 834.288H448.691C451.715 834.288 454.167 836.863 454.167 840.038V859.205C454.167 862.381 451.715 864.955 448.691 864.955H421.31C418.286 864.955 415.834 862.381 415.834 859.205V840.038C415.834 836.863 418.286 834.288 421.31 834.288ZM448.69 862.061C450.193 862.061 451.41 860.782 451.41 859.205V840.038C451.415 839.271 451.126 838.534 450.607 837.993C450.089 837.452 449.385 837.153 448.654 837.163H421.273C420.549 837.163 419.854 837.467 419.343 838.006C418.833 838.546 418.548 839.277 418.553 840.038V859.205C418.553 859.969 418.845 860.701 419.363 861.238C419.881 861.775 420.582 862.071 421.31 862.061H448.69Z" fill="black"/>
<path d="M422.205 849.53C422.205 848.522 423.022 847.705 424.03 847.705C425.038 847.705 425.856 848.522 425.856 849.53V849.713C425.856 850.721 425.038 851.538 424.03 851.538C423.022 851.538 422.205 850.721 422.205 849.713V849.53Z" fill="black"/>
<path d="M429.506 849.53C429.506 848.522 430.324 847.705 431.332 847.705C432.34 847.705 433.157 848.522 433.157 849.53V849.713C433.157 850.721 432.34 851.538 431.332 851.538C430.324 851.538 429.506 850.721 429.506 849.713V849.53Z" fill="black"/>
<path d="M436.808 849.53C436.808 848.522 437.625 847.705 438.633 847.705C439.642 847.705 440.459 848.522 440.459 849.53V849.713C440.459 850.721 439.642 851.538 438.633 851.538C437.625 851.538 436.808 850.721 436.808 849.713V849.53Z" fill="black"/>
<path d="M444.11 849.53C444.11 848.522 444.927 847.705 445.935 847.705C446.943 847.705 447.76 848.522 447.76 849.53V849.713C447.76 850.721 446.943 851.538 445.935 851.538C444.927 851.538 444.11 850.721 444.11 849.713V849.53Z" fill="black"/>
<path d="M422.205 841.864C422.205 840.856 423.022 840.038 424.03 840.038C425.038 840.038 425.856 840.856 425.856 841.864V842.046C425.856 843.055 425.038 843.872 424.03 843.872C423.022 843.872 422.205 843.055 422.205 842.046V841.864Z" fill="black"/>
<path d="M429.506 841.864C429.506 840.856 430.324 840.038 431.332 840.038C432.34 840.038 433.157 840.856 433.157 841.864V842.046C433.157 843.055 432.34 843.872 431.332 843.872C430.324 843.872 429.506 843.055 429.506 842.046V841.864Z" fill="black"/>
<path d="M436.808 841.864C436.808 840.856 437.625 840.038 438.633 840.038C439.642 840.038 440.459 840.856 440.459 841.864V842.046C440.459 843.055 439.642 843.872 438.633 843.872C437.625 843.872 436.808 843.055 436.808 842.046V841.864Z" fill="black"/>
<path d="M444.11 841.864C444.11 840.856 444.927 840.038 445.935 840.038C446.943 840.038 447.76 840.856 447.76 841.864V842.046C447.76 843.055 446.943 843.872 445.935 843.872C444.927 843.872 444.11 843.055 444.11 842.046V841.864Z" fill="black"/>
<path d="M426.768 857.212C426.768 856.196 427.592 855.372 428.608 855.372H441.357C442.373 855.372 443.197 856.196 443.197 857.212V857.365C443.197 858.381 442.373 859.205 441.357 859.205H428.608C427.592 859.205 426.768 858.381 426.768 857.365V857.212Z" fill="black"/>
<path fill-rule="evenodd" clip-rule="evenodd" d="M575.912 841.495L569.127 834.71C567.632 833.224 565.217 833.224 563.722 834.71L560.157 838.256C559.807 838.163 559.446 838.118 559.083 838.122C558.068 838.126 557.096 838.533 556.381 839.253L547.219 848.376C545.78 849.814 544.971 851.765 544.971 853.8C544.971 855.835 545.78 857.786 547.219 859.224L548.12 860.125L544.958 863.307C544.469 863.795 544.322 864.529 544.587 865.167C544.851 865.806 545.474 866.221 546.165 866.22C546.617 866.217 547.05 866.038 547.373 865.722L550.535 862.54L551.398 863.403C552.836 864.842 554.787 865.651 556.822 865.651C558.856 865.651 560.808 864.842 562.246 863.403L571.408 854.241C572.412 853.239 572.78 851.764 572.366 850.408L575.912 846.843C577.36 845.354 577.36 842.983 575.912 841.495ZM569.529 852.363L560.368 861.524C559.429 862.468 558.153 862.998 556.822 862.998C555.491 862.998 554.215 862.468 553.276 861.524L549.098 857.288C548.154 856.35 547.624 855.074 547.624 853.743C547.624 852.412 548.154 851.136 549.098 850.197L558.259 841.035C558.484 840.833 558.781 840.729 559.083 840.748C559.309 840.764 559.526 840.836 559.716 840.958L569.663 850.906C569.786 851.096 569.858 851.313 569.874 851.538C569.877 851.849 569.752 852.147 569.529 852.363ZM570.775 848.05L573.918 844.907C574.303 844.512 574.303 843.883 573.918 843.488L567.133 836.703C566.739 836.319 566.11 836.319 565.715 836.703L562.572 839.847L570.775 848.05Z" fill="black"/>
<path d="M568.303 838.984C567.741 838.424 566.832 838.424 566.271 838.984L565.696 839.559C565.135 840.12 565.135 841.03 565.696 841.591C565.983 841.851 566.364 841.983 566.75 841.955C567.133 841.964 567.502 841.811 567.766 841.533L568.341 840.958C568.863 840.398 568.846 839.524 568.303 838.984Z" fill="black"/>
<path d="M569.395 842.108L568.82 842.683C568.259 843.245 568.259 844.154 568.82 844.715C569.088 844.987 569.454 845.139 569.836 845.137C570.218 845.141 570.585 844.988 570.852 844.715L571.427 844.14C571.811 843.782 571.97 843.242 571.84 842.733C571.709 842.223 571.312 841.826 570.802 841.696C570.293 841.566 569.753 841.724 569.395 842.108Z" fill="black"/>
<path d="M694.188 839.368C692.06 840.79 689.559 841.55 687 841.553C684.441 841.55 681.94 840.79 679.813 839.368C679.088 838.886 678.89 837.908 679.372 837.183C679.853 836.457 680.832 836.26 681.557 836.742C684.844 838.946 689.137 838.946 692.424 836.742C692.891 836.349 693.54 836.257 694.097 836.506C694.654 836.754 695.02 837.299 695.039 837.908C695.058 838.518 694.728 839.084 694.188 839.368Z" fill="black"/>
<path fill-rule="evenodd" clip-rule="evenodd" d="M691.907 829.708H682.093C675.742 829.708 670.593 834.856 670.593 841.208V858.036C670.593 864.387 675.742 869.536 682.093 869.536H691.907C698.258 869.536 703.407 864.387 703.407 858.036V841.208C703.407 834.856 698.258 829.708 691.907 829.708ZM682.093 833.215H691.907C696.321 833.215 699.899 836.793 699.899 841.208V853.762L696.219 854.816C695.849 854.922 695.469 855.009 695.086 855.098C694.915 855.137 694.743 855.177 694.571 855.218V855.046C692.657 852.873 689.896 851.635 687 851.653C684.138 851.663 681.417 852.898 679.525 855.046C679.525 855.046 679.525 855.161 679.41 855.218C679.219 855.171 679.026 855.125 678.832 855.08C678.481 854.998 678.127 854.915 677.781 854.816L674.101 853.762V841.208C674.101 839.088 674.943 837.055 676.442 835.556C677.941 834.057 679.974 833.215 682.093 833.215ZM687 854.816C685.727 854.823 684.483 855.196 683.416 855.889C685.799 856.138 688.201 856.138 690.584 855.889C689.517 855.196 688.273 854.823 687 854.816ZM691.907 866.028H682.093C677.679 866.028 674.101 862.45 674.101 858.036V857.039L676.918 857.844C680.2 858.762 683.593 859.22 687 859.205C690.41 859.202 693.803 858.724 697.082 857.787L699.899 856.982V857.978C699.915 860.108 699.079 862.156 697.579 863.667C696.078 865.179 694.036 866.028 691.907 866.028Z" fill="black"/>
<path fill-rule="evenodd" clip-rule="evenodd" d="M809.167 841.955H816.833C818.95 841.955 820.667 843.671 820.667 845.788V853.455C820.667 855.572 818.95 857.288 816.833 857.288H809.167C807.05 857.288 805.333 855.572 805.333 853.455V845.788C805.333 843.671 807.05 841.955 809.167 841.955ZM816.833 854.413C817.363 854.413 817.792 853.984 817.792 853.455V845.788C817.792 845.259 817.363 844.83 816.833 844.83H809.167C808.637 844.83 808.208 845.259 808.208 845.788V853.455C808.208 853.984 808.637 854.413 809.167 854.413H816.833Z" fill="black"/>
<path fill-rule="evenodd" clip-rule="evenodd" d="M826.417 852.018H832.167C832.961 852.018 833.604 852.661 833.604 853.455C833.604 854.249 832.961 854.893 832.167 854.893H826.417V855.372C826.417 859.606 822.984 863.038 818.75 863.038H818.271V868.788C818.271 869.582 817.627 870.226 816.833 870.226C816.039 870.226 815.396 869.582 815.396 868.788V863.038H810.604V868.788C810.604 869.582 809.961 870.226 809.167 870.226C808.373 870.226 807.729 869.582 807.729 868.788V863.038H807.25C803.016 863.038 799.583 859.606 799.583 855.372V854.893H793.833C793.039 854.893 792.396 854.249 792.396 853.455C792.396 852.661 793.039 852.018 793.833 852.018H799.583V847.226H793.833C793.039 847.226 792.396 846.582 792.396 845.788C792.396 844.995 793.039 844.351 793.833 844.351H799.583V843.872C799.583 839.638 803.016 836.205 807.25 836.205H807.729V830.455C807.729 829.661 808.373 829.018 809.167 829.018C809.961 829.018 810.604 829.661 810.604 830.455V836.205H815.396V830.455C815.396 829.661 816.039 829.018 816.833 829.018C817.627 829.018 818.271 829.661 818.271 830.455V836.205H818.75C822.984 836.205 826.417 839.638 826.417 843.872V844.351H832.167C832.961 844.351 833.604 844.995 833.604 845.788C833.604 846.582 832.961 847.226 832.167 847.226H826.417V852.018ZM818.75 860.163C821.396 860.163 823.542 858.018 823.542 855.372V843.872C823.542 841.225 821.396 839.08 818.75 839.08H807.25C804.604 839.08 802.458 841.225 802.458 843.872V855.372C802.458 858.018 804.604 860.163 807.25 860.163H818.75Z" fill="black"/>
<path fill-rule="evenodd" clip-rule="evenodd" d="M958.722 841.572V841.821C958.687 842.779 958.329 843.698 957.707 844.428L946.092 857.595L940.744 863.671C939.946 864.57 938.803 865.086 937.601 865.089C937.333 865.118 937.063 865.118 936.796 865.089H936.681C936.462 865.058 936.248 864.993 936.048 864.898H935.837C935.657 864.823 935.484 864.734 935.32 864.629L935.128 864.495L934.764 864.227L932.119 866.872C931.612 867.378 930.919 867.655 930.202 867.638C929.687 867.62 929.188 867.454 928.765 867.159C928.285 867.646 927.659 867.963 926.982 868.06L922.172 868.616H921.884C921.387 868.624 920.906 868.439 920.542 868.098L919.661 867.217C918.854 866.157 919.032 864.648 920.063 863.805L922.747 861.122C922.005 860.071 922.126 858.64 923.034 857.729L925.679 855.084C925.59 854.967 925.506 854.846 925.43 854.72C925.366 854.648 925.309 854.571 925.257 854.49L924.874 853.723C924.721 853.551 924.721 853.378 924.721 853.187V852.918C924.701 852.714 924.701 852.509 924.721 852.305V851.385C924.733 851.354 924.733 851.32 924.721 851.289C924.917 850.438 925.38 849.672 926.043 849.104L936.221 840.134L945.267 832.18C946.06 831.491 947.073 831.11 948.123 831.107C949.261 831.109 950.351 831.564 951.152 832.372L957.553 838.658C958.14 839.24 958.547 839.979 958.722 840.786C958.713 840.824 958.713 840.863 958.722 840.901C958.741 841.124 958.741 841.349 958.722 841.572ZM937.543 862.329C937.928 862.333 938.293 862.164 938.54 861.869L943.753 855.87L955.445 842.607C955.951 842.068 955.951 841.229 955.445 840.69L949.12 834.365C948.851 834.095 948.485 833.944 948.104 833.943C947.766 833.942 947.438 834.064 947.184 834.288L938.176 842.281L927.787 851.443C927.673 851.562 927.576 851.698 927.5 851.845V851.941C927.473 852.054 927.473 852.173 927.5 852.286C927.471 852.438 927.471 852.594 927.5 852.746C927.596 852.887 927.729 852.999 927.883 853.072C927.87 853.115 927.87 853.162 927.883 853.206L936.604 862.023C936.75 862.155 936.919 862.259 937.102 862.329C937.217 862.348 937.333 862.348 937.447 862.329H937.543ZM922.229 865.703L923.877 864.073L925.181 865.358L922.229 865.703ZM925.238 859.608L930.202 864.648L932.694 862.099L927.711 857.116L925.238 859.608Z" fill="black"/>
<path d="M947.337 840.441L938.712 849.066C938.152 849.627 938.152 850.536 938.712 851.098C938.981 851.369 939.347 851.521 939.728 851.519C940.111 851.528 940.48 851.375 940.744 851.098L949.369 842.473C949.643 842.206 949.798 841.839 949.798 841.457C949.798 841.074 949.643 840.708 949.369 840.441C948.808 839.88 947.899 839.88 947.337 840.441Z" fill="black"/>
<path fill-rule="evenodd" clip-rule="evenodd" d="M184.438 969.393H198.333C201.509 969.393 204.083 971.967 204.083 975.143V986.643C204.083 989.818 201.509 992.393 198.333 992.393H167.667C164.491 992.393 161.917 989.818 161.917 986.643V975.143C161.917 971.967 164.491 969.393 167.667 969.393H181.563V965.559C181.563 963.707 183.064 962.205 184.917 962.205C185.181 962.205 185.396 961.991 185.396 961.726C185.396 960.932 186.04 960.288 186.833 960.288C187.627 960.288 188.271 960.932 188.271 961.726C188.24 963.559 186.75 965.032 184.917 965.042C184.783 965.041 184.655 965.097 184.564 965.195C184.473 965.294 184.427 965.426 184.438 965.559V969.393ZM198.333 989.518C199.921 989.518 201.208 988.23 201.208 986.643V975.143C201.177 973.577 199.899 972.325 198.333 972.325H167.667C166.101 972.325 164.823 973.577 164.792 975.143V986.643C164.792 988.23 166.079 989.518 167.667 989.518H198.333Z" fill="black"/>
<path d="M177.25 979.493H174.854V977.059C174.854 976.265 174.211 975.622 173.417 975.622C172.623 975.622 171.979 976.265 171.979 977.059V979.455H169.583C168.79 979.455 168.146 980.099 168.146 980.893C168.146 981.687 168.79 982.33 169.583 982.33H171.979V984.726C171.979 985.52 172.623 986.163 173.417 986.163C174.211 986.163 174.854 985.52 174.854 984.726V982.368H177.25C178.044 982.368 178.688 981.725 178.688 980.931C178.688 980.137 178.044 979.493 177.25 979.493Z" fill="black"/>
<path d="M192.583 977.098C192.583 978.156 191.725 979.014 190.667 979.014C189.608 979.014 188.75 978.156 188.75 977.098C188.75 976.039 189.608 975.181 190.667 975.181C191.725 975.181 192.583 976.039 192.583 977.098Z" fill="black"/>
<path d="M192.583 984.764C192.583 985.823 191.725 986.681 190.667 986.681C189.608 986.681 188.75 985.823 188.75 984.764C188.75 983.706 189.608 982.848 190.667 982.848C191.725 982.848 192.583 983.706 192.583 984.764Z" fill="black"/>
<path d="M196.417 980.931C196.417 981.989 195.559 982.848 194.5 982.848C193.442 982.848 192.583 981.989 192.583 980.931C192.583 979.872 193.442 979.014 194.5 979.014C195.559 979.014 196.417 979.872 196.417 980.931Z" fill="black"/>
<path d="M188.75 980.931C188.75 981.989 187.892 982.848 186.833 982.848C185.775 982.848 184.917 981.989 184.917 980.931C184.917 979.872 185.775 979.014 186.833 979.014C187.892 979.014 188.75 979.872 188.75 980.931Z" fill="black"/>
<path d="M298.842 969.412C298.048 969.412 297.404 970.055 297.404 970.849V978.516C297.404 979.31 298.048 979.954 298.842 979.954C299.635 979.954 300.279 979.31 300.279 978.516V970.849C300.269 970.06 299.631 969.422 298.842 969.412Z" fill="black"/>
<path d="M306.508 969.412C305.714 969.412 305.071 970.055 305.071 970.849V978.516C305.071 979.31 305.714 979.954 306.508 979.954C307.302 979.954 307.946 979.31 307.946 978.516V970.849C307.935 970.06 307.298 969.422 306.508 969.412Z" fill="black"/>
<path fill-rule="evenodd" clip-rule="evenodd" d="M322.762 967.495H323.758C325.549 967.495 327.013 968.924 327.055 970.715V978.612C327.013 980.425 325.514 981.864 323.701 981.832H322.704C321.678 984.978 318.749 987.111 315.44 987.122H297.5C293.266 987.122 289.833 983.689 289.833 979.455V969.872C289.833 965.638 293.266 962.205 297.5 962.205H315.44C318.77 962.191 321.729 964.329 322.762 967.495ZM318.859 982.89C319.769 981.994 320.284 980.771 320.289 979.493L320.232 969.891C320.232 967.245 318.086 965.099 315.44 965.099H297.5C294.854 965.099 292.708 967.245 292.708 969.891V979.474C292.708 982.121 294.854 984.266 297.5 984.266H315.44C316.717 984.281 317.948 983.786 318.859 982.89ZM324.237 978.65C324.237 978.823 324.027 978.995 323.758 978.995H323.107V970.37H323.701C323.969 970.37 324.18 970.543 324.18 970.715L324.237 978.65Z" fill="black"/>
<path fill-rule="evenodd" clip-rule="evenodd" d="M422.063 958.372H427.985C429.132 958.372 430.232 958.829 431.041 959.642C431.851 960.455 432.303 961.556 432.298 962.703V968.607C432.298 970.988 430.367 972.919 427.985 972.919H422.063C419.681 972.919 417.75 970.988 417.75 968.607V962.703C417.745 961.556 418.197 960.455 419.006 959.642C419.816 958.829 420.915 958.372 422.063 958.372ZM427.985 970.025C428.775 970.015 429.412 969.377 429.423 968.588V962.703C429.423 961.91 428.779 961.266 427.985 961.266H422.063C421.269 961.266 420.625 961.91 420.625 962.703V968.588C420.635 969.377 421.273 970.015 422.063 970.025H427.985Z" fill="black"/>
<path fill-rule="evenodd" clip-rule="evenodd" d="M442.015 958.372H447.938C449.085 958.372 450.184 958.829 450.994 959.642C451.803 960.455 452.255 961.556 452.25 962.703V968.607C452.25 970.988 450.319 972.919 447.938 972.919H442.015C439.633 972.919 437.703 970.988 437.703 968.607V962.684C437.703 960.303 439.633 958.372 442.015 958.372ZM447.938 970.025C448.727 970.015 449.365 969.377 449.375 968.588V962.703C449.375 961.91 448.731 961.266 447.938 961.266H442.015C441.221 961.266 440.578 961.91 440.578 962.703V968.588C440.588 969.377 441.225 970.015 442.015 970.025H447.938Z" fill="black"/>
<path fill-rule="evenodd" clip-rule="evenodd" d="M422.063 978.324H427.985C430.367 978.324 432.298 980.255 432.298 982.637V988.559C432.298 990.941 430.367 992.872 427.985 992.872H422.063C420.915 992.872 419.816 992.415 419.006 991.602C418.197 990.789 417.745 989.687 417.75 988.54V982.637C417.75 980.255 419.681 978.324 422.063 978.324ZM427.985 989.978C428.779 989.978 429.423 989.334 429.423 988.54V982.637C429.412 981.847 428.775 981.21 427.985 981.199H422.063C421.273 981.21 420.635 981.847 420.625 982.637V988.54C420.625 989.334 421.269 989.978 422.063 989.978H427.985Z" fill="black"/>
<path fill-rule="evenodd" clip-rule="evenodd" d="M442.015 978.324H447.938C450.319 978.324 452.25 980.255 452.25 982.637V988.54C452.255 989.687 451.803 990.789 450.994 991.602C450.184 992.415 449.085 992.872 447.938 992.872H442.015C440.868 992.872 439.768 992.415 438.959 991.602C438.15 990.789 437.697 989.687 437.703 988.54V982.637C437.703 980.255 439.633 978.324 442.015 978.324ZM447.938 989.978C448.731 989.978 449.375 989.334 449.375 988.54V982.637C449.365 981.847 448.727 981.21 447.938 981.199H442.015C441.225 981.21 440.588 981.847 440.578 982.637V988.54C440.578 989.334 441.221 989.978 442.015 989.978H447.938Z" fill="black"/>
<path fill-rule="evenodd" clip-rule="evenodd" d="M549.5 961.266H572.5C576.734 961.266 580.167 964.698 580.167 968.933V977.098C580.167 981.332 576.734 984.764 572.5 984.764H549.5C545.266 984.764 541.833 981.332 541.833 977.098V968.933C541.833 964.698 545.266 961.266 549.5 961.266ZM572.5 981.563C574.966 981.563 576.966 979.564 576.966 977.098V968.933C576.966 966.466 574.966 964.467 572.5 964.467H549.5C547.034 964.467 545.034 966.466 545.034 968.933V977.098C545.034 979.564 547.034 981.563 549.5 981.563H572.5Z" fill="black"/>
<path d="M571.542 988.54H550.458C549.664 988.54 549.021 989.184 549.021 989.978C549.021 990.772 549.664 991.415 550.458 991.415H571.542C572.336 991.415 572.979 990.772 572.979 989.978C572.979 989.184 572.336 988.54 571.542 988.54Z" fill="black"/>
<path fill-rule="evenodd" clip-rule="evenodd" d="M690.833 967.955C690.833 970.072 689.117 971.788 687 971.788C684.883 971.788 683.167 970.072 683.167 967.955C683.167 965.838 684.883 964.122 687 964.122C689.117 964.122 690.833 965.838 690.833 967.955ZM687.958 967.955C687.958 967.426 687.529 966.997 687 966.997C686.471 966.997 686.042 967.426 686.042 967.955C686.042 968.484 686.471 968.913 687 968.913C687.529 968.913 687.958 968.484 687.958 967.955Z" fill="black"/>
<path fill-rule="evenodd" clip-rule="evenodd" d="M679.333 983.288C679.333 979.054 682.766 975.622 687 975.622C691.234 975.622 694.667 979.054 694.667 983.288C694.667 987.523 691.234 990.955 687 990.955C682.766 990.955 679.333 987.523 679.333 983.288ZM682.208 983.288C682.208 985.935 684.354 988.08 687 988.08C689.646 988.08 691.792 985.935 691.792 983.288C691.792 980.642 689.646 978.497 687 978.497C684.354 978.497 682.208 980.642 682.208 983.288Z" fill="black"/>
<path fill-rule="evenodd" clip-rule="evenodd" d="M692.75 956.455H681.25C677.016 956.455 673.583 959.888 673.583 964.122V989.038C673.583 993.273 677.016 996.705 681.25 996.705H692.75C696.984 996.705 700.417 993.273 700.417 989.038V964.122C700.417 959.888 696.984 956.455 692.75 956.455ZM697.542 989.038C697.542 991.685 695.396 993.83 692.75 993.83H681.25C678.604 993.83 676.458 991.685 676.458 989.038V964.122C676.458 961.475 678.604 959.33 681.25 959.33H692.75C695.396 959.33 697.542 961.475 697.542 964.122V989.038Z" fill="black"/>
<path d="M809.473 970.459C809.856 970.459 810.222 970.614 810.489 970.888L814.016 974.395C814.286 974.664 814.437 975.03 814.438 975.411V978.075C814.438 978.869 813.794 979.513 813 979.513C812.206 979.513 811.563 978.869 811.563 978.075V976.005L808.458 972.919C807.897 972.358 807.897 971.449 808.458 970.888C808.725 970.614 809.091 970.459 809.473 970.459Z" fill="black"/>
<path fill-rule="evenodd" clip-rule="evenodd" d="M824.5 972.804V971.903C824.509 969.059 822.852 966.472 820.264 965.291V960.288C820.264 958.171 818.548 956.455 816.431 956.455H809.588C807.471 956.455 805.755 958.171 805.755 960.288V965.291C803.157 966.463 801.49 969.053 801.5 971.903V980.394C801.497 983.264 803.189 985.864 805.813 987.026V992.45C805.813 994.567 807.529 996.283 809.646 996.283H816.431C818.548 996.283 820.264 994.567 820.264 992.45V987.026C822.882 985.857 824.57 983.261 824.577 980.394V979.513C825.366 979.502 826.004 978.865 826.014 978.075V974.242C826.015 973.847 825.853 973.469 825.566 973.197C825.28 972.925 824.894 972.783 824.5 972.804ZM808.764 960.288C808.764 959.791 809.168 959.388 809.665 959.388H816.431C816.928 959.388 817.332 959.791 817.332 960.288V964.658H808.764V960.288ZM816.488 993.351C816.986 993.351 817.389 992.948 817.389 992.45L817.313 987.639H808.688V992.45C808.688 992.948 809.091 993.351 809.588 993.351H816.488ZM821.759 980.394C821.759 981.574 821.291 982.705 820.457 983.539C819.623 984.372 818.492 984.841 817.313 984.841H808.764C806.308 984.841 804.318 982.85 804.318 980.394V971.903C804.328 969.455 806.316 967.476 808.764 967.476H817.255C819.703 967.476 821.691 969.455 821.702 971.903L821.759 980.394Z" fill="black"/>
<path fill-rule="evenodd" clip-rule="evenodd" d="M942.741 969.059H953.34C956.004 969.059 957.998 972.087 957.346 975.25L955.008 988.072C954.797 990.188 953.119 991.858 951.002 992.059H928.424C926.277 991.893 924.557 990.214 924.341 988.072L921.849 975.211C921.274 972.049 923.268 969.02 925.932 969.02H937.432L929.056 959.035C928.713 958.368 928.889 957.551 929.477 957.085C930.064 956.619 930.899 956.632 931.471 957.118L940.173 967.372L947.839 957.118C948.088 956.763 948.473 956.527 948.903 956.469C949.333 956.411 949.767 956.535 950.101 956.811C950.786 957.34 950.922 958.32 950.408 959.015L942.741 969.059ZM951.999 987.516L954.337 974.694C954.518 973.912 954.342 973.091 953.858 972.451C953.735 972.279 953.549 972.162 953.34 972.125H926.009C925.8 972.162 925.614 972.279 925.491 972.451C925.006 973.091 924.831 973.912 925.012 974.694L927.35 987.516C927.504 988.417 928.04 988.935 928.347 988.935H951.002C951.309 988.935 951.845 988.417 951.999 987.516Z" fill="black"/>
<path d="M940.249 975.173C939.381 975.173 938.678 975.877 938.678 976.745V982.495C938.688 983.355 939.389 984.047 940.249 984.047C941.117 984.047 941.821 983.343 941.821 982.475V976.725C941.811 975.865 941.11 975.173 940.249 975.173Z" fill="black"/>
<path d="M932.295 976.285C932.081 975.726 931.568 975.338 930.973 975.283C930.378 975.228 929.803 975.516 929.489 976.025C929.176 976.534 929.179 977.177 929.497 977.684L932.64 983.951C932.9 984.486 933.445 984.822 934.039 984.814C934.278 984.82 934.515 984.767 934.729 984.66C935.103 984.475 935.388 984.149 935.521 983.753C935.654 983.358 935.624 982.926 935.439 982.552L932.295 976.285Z" fill="black"/>
<path d="M950.427 975.48C950.054 975.288 949.62 975.256 949.223 975.389C948.826 975.523 948.5 975.811 948.319 976.189L945.175 982.456C944.989 982.83 944.96 983.262 945.093 983.657C945.226 984.053 945.511 984.379 945.884 984.565C946.099 984.67 946.335 984.723 946.574 984.718C947.168 984.726 947.714 984.39 947.974 983.855L951.174 977.588C951.358 977.21 951.382 976.774 951.241 976.377C951.101 975.981 950.808 975.658 950.427 975.48Z" fill="black"/>
<path fill-rule="evenodd" clip-rule="evenodd" d="M170.139 1104.06H177.806C180.223 1104.01 182.219 1105.93 182.272 1108.35V1116.02C182.261 1118.44 180.302 1120.39 177.883 1120.41H170.216C167.799 1120.44 165.811 1118.51 165.769 1116.09V1108.43C165.769 1106.01 167.726 1104.06 170.139 1104.06ZM177.806 1117.53C178.642 1117.53 179.32 1116.85 179.32 1116.02V1108.35C179.32 1107.95 179.16 1107.57 178.875 1107.29C178.591 1107 178.206 1106.85 177.806 1106.85H170.139C169.743 1106.85 169.363 1107.01 169.082 1107.29C168.802 1107.57 168.644 1107.95 168.644 1108.35V1116.02C168.644 1116.84 169.311 1117.52 170.139 1117.53H177.806Z" fill="black"/>
<path d="M175.448 1110.78V1109.69C175.448 1108.9 174.805 1108.25 174.011 1108.25C173.217 1108.25 172.573 1108.9 172.573 1109.69V1110.78H171.5C170.706 1110.78 170.063 1111.43 170.063 1112.22C170.063 1113.01 170.706 1113.66 171.5 1113.66H172.593V1114.77C172.593 1115.56 173.236 1116.21 174.03 1116.21C174.824 1116.21 175.468 1115.56 175.468 1114.77V1113.66H176.579C177.373 1113.66 178.017 1113.01 178.017 1112.22C178.017 1111.43 177.373 1110.78 176.579 1110.78H175.448Z" fill="black"/>
<path fill-rule="evenodd" clip-rule="evenodd" d="M185.013 1083.28L198.429 1096.7C198.714 1096.99 198.867 1097.38 198.851 1097.79V1111.21C198.851 1116.23 194.775 1120.31 189.747 1120.31H184.246C183.452 1120.31 182.808 1119.67 182.808 1118.87C182.808 1118.08 183.452 1117.43 184.246 1117.43H189.747C193.187 1117.43 195.976 1114.65 195.976 1111.21V1099.23H187.83C184.919 1099.23 182.559 1096.87 182.559 1093.96V1085.79H178.247C174.803 1085.8 172.018 1088.6 172.018 1092.04V1101.62C172.018 1102.42 171.374 1103.06 170.58 1103.06C169.786 1103.06 169.143 1102.42 169.143 1101.62V1092.04C169.122 1089.61 170.072 1087.28 171.782 1085.55C173.491 1083.83 175.819 1082.86 178.247 1082.86H183.997C184.378 1082.86 184.743 1083.01 185.013 1083.28ZM185.434 1087.76V1093.96C185.445 1095.27 186.514 1096.33 187.83 1096.33H194.002L185.434 1087.76Z" fill="black"/>
<path d="M309.575 1084.91H293.877C293.2 1084.91 292.651 1084.36 292.651 1083.68C292.651 1083 293.2 1082.46 293.877 1082.46H309.575C310.768 1082.46 311.911 1082.93 312.753 1083.78C313.595 1084.62 314.065 1085.77 314.06 1086.96C314.121 1088.04 315.013 1088.88 316.092 1088.88H325.56C326.038 1088.82 326.508 1089.04 326.766 1089.45C327.025 1089.85 327.025 1090.37 326.766 1090.78C326.508 1091.19 326.038 1091.41 325.56 1091.35H316.092C313.644 1091.35 311.648 1089.39 311.607 1086.94C311.596 1085.82 310.693 1084.92 309.575 1084.91Z" fill="black"/>
<path fill-rule="evenodd" clip-rule="evenodd" d="M319.982 1093.48H312.316C311.882 1093.48 311.53 1093.12 311.53 1092.69C311.53 1089.51 308.956 1086.94 305.78 1086.94H298.113C295.921 1086.93 293.815 1087.79 292.261 1089.34C290.707 1090.89 289.833 1092.99 289.833 1095.18V1112.43C289.844 1116.97 293.519 1120.64 298.056 1120.65H319.982C324.504 1120.62 328.156 1116.95 328.167 1112.43V1101.68C328.156 1097.16 324.501 1093.5 319.982 1093.48ZM325.732 1112.43C325.732 1115.61 323.158 1118.18 319.982 1118.18H298.017C294.842 1118.18 292.267 1115.61 292.267 1112.43V1095.18C292.267 1092.01 294.842 1089.43 298.017 1089.43H305.684C306.558 1089.42 307.402 1089.75 308.025 1090.37C308.649 1090.98 309 1091.82 309 1092.69C309.01 1094.48 310.466 1095.93 312.258 1095.93H319.925C323.101 1095.93 325.675 1098.5 325.675 1101.68L325.732 1112.43Z" fill="black"/>
<path fill-rule="evenodd" clip-rule="evenodd" d="M427.699 1088.36C429.016 1085.9 431.58 1084.37 434.369 1084.37C437.207 1084.35 439.825 1085.9 441.173 1088.4L451.983 1108.41C453.266 1110.78 453.204 1113.66 451.821 1115.98C450.437 1118.3 447.937 1119.72 445.237 1119.72H423.502C420.794 1119.72 418.286 1118.29 416.905 1115.96C415.524 1113.63 415.474 1110.74 416.774 1108.37L427.699 1088.36ZM438.586 1089.76C437.754 1088.2 436.132 1087.24 434.369 1087.25C432.633 1087.26 431.04 1088.21 430.21 1089.74L419.304 1109.71C418.49 1111.19 418.519 1112.99 419.382 1114.45C420.244 1115.9 421.812 1116.79 423.502 1116.78H445.237C446.921 1116.77 448.477 1115.88 449.34 1114.44C450.202 1112.99 450.245 1111.2 449.453 1109.71L438.586 1089.76Z" fill="black"/>
<path d="M434.369 1107.37C433.575 1107.37 432.932 1108.02 432.932 1108.81C432.932 1109.6 433.575 1110.25 434.369 1110.25C434.752 1110.25 435.121 1110.1 435.391 1109.83C435.662 1109.56 435.812 1109.19 435.807 1108.81C435.807 1108.43 435.655 1108.07 435.385 1107.8C435.114 1107.53 434.749 1107.39 434.369 1107.39V1107.37Z" fill="black"/>
<path d="M434.369 1104.75C433.58 1104.74 432.942 1104.1 432.932 1103.31V1097.37C432.932 1096.57 433.575 1095.93 434.369 1095.93C435.163 1095.93 435.807 1096.57 435.807 1097.37V1103.31C435.807 1104.1 435.163 1104.75 434.369 1104.75Z" fill="black"/>
<path fill-rule="evenodd" clip-rule="evenodd" d="M576.832 1107.05V1091.56C576.832 1087.59 573.614 1084.37 569.644 1084.37H552.854C548.885 1084.37 545.667 1087.59 545.667 1091.56V1111.76C545.667 1115.16 548.421 1117.91 551.819 1117.91H575.394C576.188 1117.91 576.832 1117.27 576.832 1116.48C576.832 1115.68 576.188 1115.04 575.394 1115.04H551.819C550.009 1115.04 548.542 1113.57 548.542 1111.76C548.542 1109.95 550.009 1108.48 551.819 1108.48H575.394C576.188 1108.48 576.832 1107.84 576.832 1107.05ZM548.542 1106.57V1091.56C548.542 1089.18 550.472 1087.25 552.854 1087.25H569.644C572.026 1087.25 573.957 1089.18 573.957 1091.56V1105.61H551.819C550.658 1105.61 549.521 1105.94 548.542 1106.57Z" fill="black"/>
<path d="M550.382 1111.76C550.382 1110.97 551.025 1110.32 551.819 1110.32H573.037C573.831 1110.32 574.474 1110.97 574.474 1111.76C574.474 1112.55 573.831 1113.2 573.037 1113.2H551.819C551.025 1113.2 550.382 1112.55 550.382 1111.76Z" fill="black"/>
<path fill-rule="evenodd" clip-rule="evenodd" d="M676.025 1086.29H697.975C700.146 1086.28 702.23 1087.14 703.766 1088.67C705.303 1090.21 706.167 1092.29 706.167 1094.46V1108.38C706.167 1110.55 705.303 1112.63 703.766 1114.17C702.23 1115.7 700.146 1116.56 697.975 1116.55H676.025C673.854 1116.56 671.77 1115.7 670.234 1114.17C668.697 1112.63 667.833 1110.55 667.833 1108.38V1094.46C667.833 1092.29 668.697 1090.21 670.234 1088.67C671.77 1087.14 673.854 1086.28 676.025 1086.29ZM697.975 1113.53C700.781 1113.53 703.075 1111.29 703.14 1108.48V1094.46C703.129 1091.61 700.82 1089.31 697.975 1089.31H676.025C673.18 1089.31 670.871 1091.61 670.86 1094.46V1108.38C670.871 1111.23 673.18 1113.53 676.025 1113.53H697.975Z" fill="black"/>
<path fill-rule="evenodd" clip-rule="evenodd" d="M678.789 1101.98C678.789 1097.53 682.402 1093.91 686.859 1093.91C691.316 1093.91 694.929 1097.53 694.929 1101.98C694.929 1106.44 691.316 1110.06 686.859 1110.06C682.402 1110.06 678.789 1106.44 678.789 1101.98ZM681.815 1101.98C681.815 1104.77 684.073 1107.03 686.859 1107.03C689.644 1107.03 691.903 1104.77 691.903 1101.98C691.903 1099.2 689.644 1096.94 686.859 1096.94C684.073 1096.94 681.815 1099.2 681.815 1101.98Z" fill="black"/>
<path d="M694.929 1092.84C694.929 1092.31 695.358 1091.88 695.887 1091.88H698.006C698.535 1091.88 698.964 1092.31 698.964 1092.84V1094.97C698.964 1095.5 698.535 1095.93 698.006 1095.93H695.887C695.358 1095.93 694.929 1095.5 694.929 1094.97V1092.84Z" fill="black"/>
<path fill-rule="evenodd" clip-rule="evenodd" d="M801.96 1082.46H822.085C824.714 1082.38 827.265 1083.36 829.17 1085.17C831.074 1086.99 832.174 1089.49 832.224 1092.12V1106.67C832.067 1112.07 827.589 1116.35 822.181 1116.25H819.076C818.295 1116.25 817.557 1116.6 817.063 1117.21L814.131 1120.95C813.64 1121.55 812.9 1121.91 812.118 1121.91C811.337 1121.91 810.597 1121.55 810.106 1120.95L807.077 1117.13C806.584 1116.53 805.845 1116.18 805.065 1116.17H801.96C796.552 1116.27 792.073 1112 791.917 1106.59V1092.04C792.063 1086.63 796.548 1082.35 801.96 1082.46ZM822.104 1113.38C825.954 1113.47 829.158 1110.44 829.272 1106.59V1092.12C829.158 1088.26 825.942 1085.23 822.085 1085.33H801.96C798.103 1085.23 794.887 1088.26 794.772 1092.12V1106.59C794.887 1110.45 798.103 1113.48 801.96 1113.38H805.065C806.727 1113.38 808.299 1114.13 809.339 1115.43L812.022 1118.84L814.706 1115.43C815.746 1114.13 817.318 1113.38 818.98 1113.38H822.104Z" fill="black"/>
<path d="M804.835 1095.8C804.041 1095.8 803.397 1096.44 803.397 1097.24V1101.84C803.397 1102.63 804.041 1103.27 804.835 1103.27C805.629 1103.27 806.272 1102.63 806.272 1101.84V1097.24C806.272 1096.44 805.629 1095.8 804.835 1095.8Z" fill="black"/>
<path d="M812.022 1095.8C811.229 1095.8 810.585 1096.44 810.585 1097.24V1101.84C810.585 1102.63 811.229 1103.27 812.022 1103.27C812.816 1103.27 813.46 1102.63 813.46 1101.84V1097.24C813.46 1096.44 812.816 1095.8 812.022 1095.8Z" fill="black"/>
<path d="M819.21 1095.8C818.416 1095.8 817.772 1096.44 817.772 1097.24V1101.84C817.772 1102.63 818.416 1103.27 819.21 1103.27C820.004 1103.27 820.647 1102.63 820.647 1101.84V1097.24C820.647 1096.44 820.004 1095.8 819.21 1095.8Z" fill="black"/>
<path fill-rule="evenodd" clip-rule="evenodd" d="M945.169 1093.74C944.994 1093.72 944.817 1093.72 944.643 1093.74L935.123 1096.21C934.365 1096.4 933.774 1096.99 933.586 1097.74L931.185 1107.35C931.026 1107.99 931.176 1108.66 931.59 1109.18C932.003 1109.69 932.633 1109.98 933.291 1109.96C933.466 1109.98 933.642 1109.98 933.817 1109.96L943.442 1107.5C944.2 1107.31 944.792 1106.72 944.98 1105.96L947.38 1096.35C947.539 1095.72 947.389 1095.04 946.976 1094.53C946.562 1094.01 945.933 1093.72 945.274 1093.74H945.169ZM942.852 1098.15L941.378 1104.08L935.439 1105.56L936.913 1099.62L942.852 1098.15Z" fill="black"/>
<path fill-rule="evenodd" clip-rule="evenodd" d="M943.695 1080.54H934.765C925.46 1080.54 917.917 1088.08 917.917 1097.39V1106.32C917.917 1115.62 925.46 1123.17 934.765 1123.17H943.695C953 1123.17 960.543 1115.62 960.543 1106.32V1097.39C960.543 1088.08 953 1080.54 943.695 1080.54ZM934.765 1120.01C927.209 1119.99 921.087 1113.87 921.076 1106.32V1097.39C921.087 1089.83 927.209 1083.71 934.765 1083.7H943.695C951.25 1083.71 957.373 1089.83 957.384 1097.39V1106.32C957.373 1113.87 951.25 1119.99 943.695 1120.01H934.765Z" fill="black"/>
<g filter="url(#filter0_d_3_251)">
<rect x="764" y="1050" width="101" height="101" rx="24" fill="#569AFF" shape-rendering="crispEdges"/>
<path fill-rule="evenodd" clip-rule="evenodd" d="M803.679 1078.42H825.873C831.878 1078.37 836.823 1083.13 837.003 1089.13V1105.21C836.823 1111.22 831.865 1115.98 825.851 1115.92H822.406C821.548 1115.92 820.736 1116.31 820.197 1116.98L816.929 1121.13C816.384 1121.78 815.574 1122.16 814.721 1122.16C813.867 1122.16 813.058 1121.78 812.512 1121.13L809.222 1116.98C808.683 1116.31 807.872 1115.92 807.014 1115.92H803.679C797.623 1116.04 792.597 1111.26 792.417 1105.21V1089.13C792.597 1083.07 797.623 1078.3 803.679 1078.42ZM806.44 1101.56C807.354 1101.56 808.096 1100.82 808.096 1099.91V1094.61C808.096 1093.69 807.354 1092.95 806.44 1092.95C805.525 1092.95 804.783 1093.69 804.783 1094.61V1099.91C804.783 1100.82 805.525 1101.56 806.44 1101.56ZM816.377 1099.91C816.377 1100.82 815.636 1101.56 814.721 1101.56C813.806 1101.56 813.065 1100.82 813.065 1099.91V1094.61C813.065 1093.69 813.806 1092.95 814.721 1092.95C815.636 1092.95 816.377 1093.69 816.377 1094.61V1099.91ZM823.002 1101.56C823.917 1101.56 824.658 1100.82 824.658 1099.91V1094.61C824.658 1093.69 823.917 1092.95 823.002 1092.95C822.087 1092.95 821.346 1093.69 821.346 1094.61V1099.91C821.346 1100.82 822.087 1101.56 823.002 1101.56Z" fill="white"/>
</g>
<g filter="url(#filter1_d_3_251)">
<rect x="638" y="672" width="101" height="101" rx="24" fill="#FF7979" shape-rendering="crispEdges"/>
<path d="M688.613 700.417L685.587 706.6C683.426 711.017 680.528 715.035 677.019 718.481L676.622 718.856C674.368 721.044 673.08 724.041 673.044 727.182V727.579C672.984 733.73 676.649 739.306 682.319 741.69L682.893 741.933C686.612 743.513 690.813 743.513 694.531 741.933H694.664C700.376 739.452 704.041 733.784 703.961 727.557V717.973C702.057 722.32 698.6 725.801 694.266 727.734C694.266 727.734 694.266 727.734 694.134 727.734C694.001 727.734 692.455 728.374 691.793 727.734C691.201 727.135 691.144 726.191 691.66 725.525L691.815 725.415H691.925C696.995 721.561 698.177 714.421 694.619 709.14C691.749 704.767 688.613 700.417 688.613 700.417Z" fill="white"/>
</g>
<defs>
<filter id="filter0_d_3_251" x="720" y="1018" width="189" height="189" filterUnits="userSpaceOnUse" color-interpolation-filters="sRGB">
<feFlood flood-opacity="0" result="BackgroundImageFix"/>
<feColorMatrix in="SourceAlpha" type="matrix" values="0 0 0 0 0 0 0 0 0 0 0 0 0 0 0 0 0 0 127 0" result="hardAlpha"/>
<feOffset dy="12"/>
<feGaussianBlur stdDeviation="22"/>
<feComposite in2="hardAlpha" operator="out"/>
<feColorMatrix type="matrix" values="0 0 0 0 0.337255 0 0 0 0 0.603922 0 0 0 0 1 0 0 0 0.16 0"/>
<feBlend mode="normal" in2="BackgroundImageFix" result="effect1_dropShadow_3_251"/>
<feBlend mode="normal" in="SourceGraphic" in2="effect1_dropShadow_3_251" result="shape"/>
</filter>
<filter id="filter1_d_3_251" x="594" y="640" width="189" height="189" filterUnits="userSpaceOnUse" color-interpolation-filters="sRGB">
<feFlood flood-opacity="0" result="BackgroundImageFix"/>
<feColorMatrix in="SourceAlpha" type="matrix" values="0 0 0 0 0 0 0 0 0 0 0 0 0 0 0 0 0 0 127 0" result="hardAlpha"/>
<feOffset dy="12"/>
<feGaussianBlur stdDeviation="22"/>
<feComposite in2="hardAlpha" operator="out"/>
<feColorMatrix type="matrix" values="0 0 0 0 0.337255 0 0 0 0 0.603922 0 0 0 0 1 0 0 0 0.16 0"/>
<feBlend mode="normal" in2="BackgroundImageFix" result="effect1_dropShadow_3_251"/>
<feBlend mode="normal" in="SourceGraphic" in2="effect1_dropShadow_3_251" result="shape"/>
</filter>
<clipPath id="clip0_3_251">
<rect width="774" height="145" fill="white" transform="translate(167 250)"/>
</clipPath>
</defs>
</svg>
