<svg width="46" height="47" viewBox="0 0 46 47" fill="none" xmlns="http://www.w3.org/2000/svg">
<path fill-rule="evenodd" clip-rule="evenodd" d="M3.83325 23.7755C3.83325 13.1054 12.4831 4.45554 23.1533 4.45554C24.5728 4.44841 25.9882 4.60925 27.3699 4.9347C21.9014 6.50045 18.3223 11.7376 18.8503 17.4014C19.3783 23.0651 23.8637 27.5505 29.5274 28.0785C35.1911 28.6065 40.4283 25.0274 41.9941 19.5589C42.3195 20.9406 42.4804 22.356 42.4732 23.7755C42.4732 34.4457 33.8234 43.0955 23.1533 43.0955C12.4831 43.0955 3.83325 34.4457 3.83325 23.7755ZM20.2073 26.7199C15.1952 21.7126 14.4676 13.8428 18.4766 8.00137C10.9309 10.2424 6.03143 17.5163 6.79022 25.351C7.549 33.1858 13.7533 39.3842 21.5887 40.1357C29.4242 40.8871 36.6934 35.9808 38.9274 28.433C33.0898 32.4475 25.2193 31.7273 20.2073 26.7199Z" fill="black"/>
</svg>
